<?xml version="1.0" encoding="UTF-8"?>
<svg version="1.1" xmlns="http://www.w3.org/2000/svg" width="1024" height="1024">
<path d="M0 0 C337.92 0 675.84 0 1024 0 C1024 337.92 1024 675.84 1024 1024 C686.08 1024 348.16 1024 0 1024 C0 686.08 0 348.16 0 0 Z " fill="#080808" transform="translate(0,0)"/>
<path d="M0 0 C12.61768104 7.54922272 18.56473775 20.50589243 24.9921875 33.19140625 C26.21900159 35.59042477 27.450665 37.9869316 28.68359375 40.3828125 C28.98964539 40.97818817 29.29569702 41.57356384 29.61102295 42.1869812 C32.46196375 47.71700161 35.42822742 53.17952794 38.4296875 58.62890625 C42.48471878 65.99748122 46.43496107 73.41133259 50.3046875 80.87890625 C55.64618846 91.17919461 61.17243399 101.36921127 66.75292969 111.54150391 C70.02249401 117.51993004 73.2593414 123.51628076 76.48852539 129.51660156 C79.13971709 134.43202601 81.82663405 139.31948686 84.60546875 144.1640625 C85.12359131 145.07591309 85.64171387 145.98776367 86.17553711 146.92724609 C87.15257014 148.64153388 88.14106651 150.34935712 89.14282227 152.04931641 C92.30981945 157.63272006 92.30981945 157.63272006 92.28515625 161.21875 C91.20599208 163.59635074 90.14771038 164.97426074 88.2421875 166.75390625 C87.61054687 167.34945312 86.97890625 167.945 86.328125 168.55859375 C83.6868406 170.93472991 81.04134433 173.30105754 78.34375 175.61328125 C76.96355034 176.80839666 75.60441352 178.02820243 74.265625 179.26953125 C73.26402344 180.18992187 73.26402344 180.18992187 72.2421875 181.12890625 C71.35853516 181.95648438 71.35853516 181.95648438 70.45703125 182.80078125 C67.57566657 184.91343339 64.62234132 186.05662405 61.3046875 187.37890625 C60.5703125 186.03255208 59.8359375 184.68619792 59.1015625 183.33984375 C58.62170898 182.46021973 58.14185547 181.5805957 57.64746094 180.67431641 C56.57222735 178.70283509 55.49736647 176.73115046 54.42285156 174.75927734 C51.66281453 169.69546739 48.89767976 164.63464218 46.1171875 159.58203125 C41.38840448 150.97723339 36.71522939 142.36755412 32.37744141 133.55834961 C27.53430115 123.73966847 22.39115831 114.07296024 17.3046875 104.37890625 C16.49475841 102.83204866 15.68486019 101.28517491 14.875 99.73828125 C9.95741772 90.35871622 4.98884539 81.00620545 0.01062012 71.65872192 C-0.70250221 70.31959417 -1.41531815 68.9803032 -2.12780762 67.64083862 C-3.13617749 65.74564188 -4.14601147 63.85123243 -5.15625 61.95703125 C-6.03482666 60.30815918 -6.03482666 60.30815918 -6.93115234 58.62597656 C-8.22176766 56.25050137 -9.54750793 53.92181815 -10.91650391 51.59277344 C-12.6953125 48.37890625 -12.6953125 48.37890625 -12.6953125 46.37890625 C-17.02215204 50.05956231 -19.30171921 54.68543303 -21.9375 59.6171875 C-22.45303436 60.57256912 -22.96856873 61.52795074 -23.49972534 62.51228333 C-30.54102994 75.67846769 -37.1366918 89.07552948 -43.77038574 102.45001221 C-46.88832922 108.73501919 -50.01286032 115.01675058 -53.140625 121.296875 C-53.47393578 121.96634533 -53.80724655 122.63581566 -54.15065765 123.32557297 C-59.18184103 133.42426825 -64.33927897 143.44760709 -69.6473999 153.40371704 C-71.32217074 156.56045863 -72.96342432 159.73428854 -74.6015625 162.91015625 C-75.19461182 164.0595166 -75.78766113 165.20887695 -76.39868164 166.39306641 C-76.99156982 167.54339355 -77.58445801 168.6937207 -78.1953125 169.87890625 C-82.73334813 178.6716281 -87.29475127 187.45090824 -91.91796875 196.19921875 C-96.1598093 204.23639031 -100.3331221 212.30898984 -104.50610352 220.38208008 C-107.17867522 225.54753942 -109.85909712 230.70718348 -112.6015625 235.8359375 C-113.04371094 236.66480469 -113.48585938 237.49367188 -113.94140625 238.34765625 C-114.73070597 239.82298284 -115.52436334 241.29599447 -116.32421875 242.765625 C-118.74573325 247.29620051 -120.83208107 251.93745548 -122.83789062 256.66479492 C-123.11377014 257.31189171 -123.38964966 257.95898849 -123.67388916 258.62569427 C-124.3489399 260.20956909 -125.02229849 261.79416492 -125.6953125 263.37890625 C-108.89121743 263.34158859 -92.08737711 263.28150819 -75.28347015 263.19500351 C-67.47950436 263.15534893 -59.67563743 263.122888 -51.87158203 263.10791016 C-45.06228919 263.09482264 -38.2532151 263.06767945 -31.44404554 263.02429318 C-27.84518615 263.0018362 -24.24659496 262.98598595 -20.6476593 262.9870224 C7.54818764 262.98612821 26.34138623 259.07789379 47.49414062 239.99951172 C49.9879854 237.76729197 52.52758462 235.59018185 55.06640625 233.40942383 C61.01336088 228.29706336 66.87386026 223.1038627 72.64453125 217.79296875 C74.77684582 215.85791676 76.93094303 213.96104126 79.10546875 212.07421875 C83.3573163 208.36425868 87.46239004 204.51316085 91.5546875 200.62890625 C97.39075993 195.11175179 103.26445025 189.6452467 109.19921875 184.234375 C113.68562908 180.12713966 118.10388362 175.9460023 122.52368164 171.76733398 C126.39167303 168.12343154 130.33322991 164.58749022 134.34472656 161.10253906 C137.47890876 158.34627021 140.51547141 155.48898569 143.5546875 152.62890625 C144.86291356 151.40325326 146.17151222 150.17799785 147.48046875 148.953125 C148.12322754 148.35161621 148.76598633 147.75010742 149.42822266 147.13037109 C156.02881422 140.96947546 162.66407121 134.841295 169.5 128.94140625 C170.7357251 127.87151439 171.95921241 126.78736909 173.171875 125.69140625 C174.07292969 124.88703125 174.07292969 124.88703125 174.9921875 124.06640625 C175.51167969 123.59589844 176.03117187 123.12539063 176.56640625 122.640625 C181.98053701 118.71081773 187.87086564 118.6490189 194.3046875 119.37890625 C200.42822021 121.26072278 204.201067 124.46091307 207.2421875 130.125 C209.71903114 135.62049683 209.70624821 140.55552019 208.3046875 146.37890625 C204.20821606 154.92806403 195.28481 161.64441264 188.16796875 167.734375 C186.30016957 169.38289377 184.55013126 171.10194206 182.8046875 172.87890625 C179.87697542 175.85256897 176.81003327 178.59069352 173.65234375 181.31640625 C169.01707526 185.38865544 164.52079558 189.61623653 159.99707031 193.81152344 C158.38094119 195.30828469 156.76158532 196.80144256 155.140625 198.29296875 C149.16653642 203.79128608 143.22339951 209.32099678 137.3046875 214.87890625 C127.89649533 223.71193491 118.44231206 232.48813415 108.83203125 241.1015625 C105.97386287 243.67700634 103.13782773 246.276026 100.3046875 248.87890625 C98.30526681 250.71287297 96.30501932 252.54593287 94.3046875 254.37890625 C93.44746094 255.16523438 92.59023438 255.9515625 91.70703125 256.76171875 C86.58757353 261.4187215 81.33386831 265.852859 75.9453125 270.1953125 C73.54214274 272.18254903 71.2688832 274.24977416 68.9921875 276.37890625 C56.56699555 287.48226927 40.6689028 295.99212603 24.6171875 300.31640625 C23.88218018 300.51588867 23.14717285 300.71537109 22.38989258 300.92089844 C10.90363919 303.75302157 -1.09127864 303.5346961 -12.84887695 303.58422852 C-14.31875872 303.59383532 -15.78863789 303.6038469 -17.2585144 303.61422729 C-21.20594896 303.64097949 -25.1533951 303.66214738 -29.10086846 303.68222928 C-33.24216779 303.70427468 -37.38343261 303.73157155 -41.52470398 303.75828552 C-49.34763923 303.80796399 -57.17059389 303.85299372 -64.99356669 303.89630789 C-73.90786889 303.94589426 -82.82213644 304.0007322 -91.73640501 304.05598748 C-110.05600859 304.1694255 -128.37564496 304.27634588 -146.6953125 304.37890625 C-148.71916702 308.14860546 -150.74204987 311.9188241 -152.76411438 315.68948364 C-153.44910285 316.96651566 -154.13433606 318.24341644 -154.81983948 319.52017212 C-159.23070612 327.73593389 -163.59339825 335.97384411 -167.8828125 344.25390625 C-171.70352691 351.60889458 -175.59026134 358.9213194 -179.5703125 366.19140625 C-180.05532227 367.07795898 -180.54033203 367.96451172 -181.04003906 368.87792969 C-183.19349034 372.81209248 -185.34807495 376.74563119 -187.50439453 380.67822266 C-189.38654691 384.11687355 -191.26031175 387.55999185 -193.1328125 391.00390625 C-194.00172119 392.58522339 -194.00172119 392.58522339 -194.88818359 394.19848633 C-205.96544731 414.36990229 -205.96544731 414.36990229 -206.04296875 436.71875 C-203.32992773 442.78524946 -198.79709353 446.86247997 -192.8828125 449.75390625 C-183.1540569 451.66150539 -174.82303628 450.15885603 -166.4453125 444.87890625 C-161.99414336 441.75690567 -157.88936815 438.23165717 -153.7722168 434.68945312 C-148.46211413 430.13026632 -142.93712274 425.89472239 -137.36767578 421.66015625 C-134.4544908 419.4282738 -131.57626125 417.15214555 -128.6953125 414.87890625 C-124.21742342 411.34948684 -119.72033785 407.84767948 -115.1953125 404.37890625 C-105.37996436 396.84276076 -95.64263155 389.25739578 -86.23168945 381.21850586 C-82.64585554 378.16159477 -78.99049927 375.23469941 -75.25 372.37109375 C-71.79332333 369.6755202 -68.40371484 366.90041754 -65.0078125 364.12890625 C-57.6370796 358.12523488 -50.23704533 352.16697058 -42.6953125 346.37890625 C-41.81359375 345.69828125 -40.931875 345.01765625 -40.0234375 344.31640625 C-29.69569912 336.68572057 -18.57947361 332.2529496 -5.6953125 333.37890625 C8.84803514 336.30520408 19.11230203 344.82836089 30.23828125 354.03125 C34.00512754 357.14626265 37.82724485 360.18322569 41.6796875 363.19140625 C45.5708954 366.23430164 49.45283794 369.28613453 53.3046875 372.37890625 C68.39154125 384.47777923 83.67717273 396.33995784 99.0546875 408.06640625 C104.14506509 411.94841492 109.2138167 415.85437301 114.2421875 419.81640625 C114.79592041 420.25202881 115.34965332 420.68765137 115.92016602 421.13647461 C118.44350103 423.12240941 120.96536644 425.11011223 123.48242188 427.10400391 C142.14114973 443.45755746 142.14114973 443.45755746 165.3046875 448.37890625 C172.45774113 446.73806241 176.11979962 443.15430437 180.6171875 437.44140625 C183.45387464 432.09355344 183.53689634 425.2222404 182.3046875 419.37890625 C179.38425151 410.85286847 175.12334339 402.94878434 170.8046875 395.06640625 C170.19230225 393.93904053 169.57991699 392.8116748 168.94897461 391.65014648 C163.94108322 382.4633227 158.80532036 373.3509555 153.63671875 364.25390625 C142.47023811 344.59083029 131.68806678 324.74389198 121.14822388 304.73997498 C119.19787231 301.04560603 117.21488115 297.37179176 115.1953125 293.71484375 C114.75944824 292.91900879 114.32358398 292.12317383 113.87451172 291.30322266 C113.11000541 289.91198988 112.33641284 288.52568756 111.55126953 287.14599609 C109.24143991 282.9145922 109.24143991 282.9145922 109.53808594 280.40209961 C110.43631138 278.0315282 111.50295608 276.80768922 113.296875 275.0234375 C113.91457764 274.4049292 114.53228027 273.7864209 115.16870117 273.14916992 C115.83232666 272.50310791 116.49595215 271.8570459 117.1796875 271.19140625 C118.19156128 270.19427612 118.19156128 270.19427612 119.22387695 269.17700195 C132.67882984 256.06308423 132.67882984 256.06308423 140.3046875 252.37890625 C140.78719971 253.34755615 141.26971191 254.31620605 141.7668457 255.31420898 C146.62231308 265.05054013 151.52034856 274.76394943 156.4921875 284.44140625 C156.85874451 285.15501312 157.22530151 285.86862 157.60296631 286.60385132 C162.69305437 296.49517064 167.94776868 306.26180899 173.4909668 315.90844727 C177.74276987 323.32152571 181.79406387 330.8336364 185.8046875 338.37890625 C190.491498 347.18927509 195.25533739 355.94844961 200.1796875 364.62890625 C200.71416504 365.5734668 201.24864258 366.51802734 201.79931641 367.49121094 C204.11974913 371.57997093 206.45838943 375.65401829 208.8671875 379.69140625 C220.59718872 399.5228251 227.63079082 420.75403938 222.1796875 443.87890625 C216.48853341 462.45724098 205.40284447 474.60016043 188.4296875 483.62890625 C174.08022223 490.41360917 156.44860669 492.45459508 141.1796875 487.25390625 C138.8663545 486.34912487 136.57154826 485.39452487 134.3046875 484.37890625 C133.38042969 483.96769531 132.45617187 483.55648438 131.50390625 483.1328125 C122.69874336 478.7367534 115.04447266 472.38835715 107.3046875 466.37890625 C105.79297531 465.21092901 104.28125646 464.04296039 102.76953125 462.875 C92.99080464 455.30286204 83.27005818 447.65600093 73.55615234 440.00097656 C66.89215189 434.74988384 60.2131579 429.5218468 53.48022461 424.35913086 C48.73834366 420.72044272 44.02036281 417.05146926 39.3046875 413.37890625 C33.01267835 408.47985993 26.70847671 403.59769106 20.3828125 398.7421875 C17.71477696 396.6937592 15.05052612 394.64060012 12.38842773 392.58447266 C10.7665961 391.33520771 9.13931378 390.0933042 7.51171875 388.8515625 C5.33342964 387.18549977 3.19223229 385.48241644 1.06640625 383.75 C0.02085699 382.91793902 -1.02471503 382.08590665 -2.0703125 381.25390625 C-2.98554688 380.50882813 -3.90078125 379.76375 -4.84375 378.99609375 C-8.50959825 376.91710584 -10.53461216 376.751826 -14.6953125 377.37890625 C-17.12288172 378.86523391 -19.01328684 380.22902626 -21.1328125 382.06640625 C-22.02407837 382.80201782 -22.02407837 382.80201782 -22.93334961 383.55249023 C-24.20571282 384.60400412 -25.47225836 385.66259058 -26.73339844 386.72753906 C-30.03877543 389.50971551 -33.40233562 392.22007335 -36.7578125 394.94140625 C-37.43183105 395.49135254 -38.10584961 396.04129883 -38.80029297 396.60791016 C-43.93268192 400.78999455 -49.15414137 404.83699947 -54.41796875 408.8515625 C-58.05463796 411.63904899 -61.6250144 414.50720406 -65.1953125 417.37890625 C-70.31580594 421.49747894 -75.48500618 425.5354054 -80.7109375 429.51953125 C-85.10794793 432.88950275 -89.40665108 436.37250156 -93.6953125 439.87890625 C-99.54934299 444.66413954 -105.47347351 449.33187354 -111.484375 453.91796875 C-114.91482582 456.53777766 -118.30556582 459.20676871 -121.6953125 461.87890625 C-122.87096344 462.80224928 -124.04674407 463.7254272 -125.22265625 464.6484375 C-127.49179447 466.42992949 -129.75356782 468.2202374 -132.01171875 470.015625 C-150.95646268 484.97887725 -168.42582131 492.85725089 -192.6953125 491.37890625 C-196.86734683 490.75676078 -200.71119052 489.74844818 -204.6953125 488.37890625 C-205.5409375 488.11207031 -206.3865625 487.84523438 -207.2578125 487.5703125 C-222.24274624 482.30217173 -234.24270105 470.11965862 -241.6953125 456.37890625 C-249.34396775 440.22112202 -250.24516785 422.53310512 -244.3359375 405.65625 C-243.79813664 404.2270213 -243.2511507 402.80121716 -242.6953125 401.37890625 C-242.28442383 400.32340576 -242.28442383 400.32340576 -241.86523438 399.24658203 C-235.58614893 383.59452173 -227.16090981 368.85035695 -219.21815491 354.00213623 C-215.13460225 346.35423199 -211.15743523 338.65273417 -207.1953125 330.94140625 C-205.87017856 328.36438419 -204.54463908 325.78757111 -203.21875 323.2109375 C-202.90804062 322.60702682 -202.59733124 322.00311615 -202.27720642 321.38090515 C-199.8220938 316.61386419 -197.3304207 311.86714896 -194.8203125 307.12890625 C-181.79788322 282.48019838 -169.23959394 257.59590794 -156.83911133 232.62963867 C-151.30978408 221.51146133 -145.63750406 210.48305541 -139.82177734 199.51220703 C-136.90537987 193.9891292 -134.05666485 188.43062154 -131.1953125 182.87890625 C-127.12276927 174.98704819 -123.03915897 167.10206102 -118.8828125 159.25390625 C-114.18553103 150.37444464 -109.59757825 141.43923531 -105.0078125 132.50390625 C-104.62081177 131.75052979 -104.23381104 130.99715332 -103.83508301 130.22094727 C-103.05220012 128.69686144 -102.26932252 127.17277289 -101.4864502 125.64868164 C-101.09904663 124.89449951 -100.71164307 124.14031738 -100.3125 123.36328125 C-99.92477417 122.60845459 -99.53704834 121.85362793 -99.13757324 121.07592773 C-95.31222904 113.63030437 -91.47693117 106.18985319 -87.6328125 98.75390625 C-87.16639343 97.85150711 -87.16639343 97.85150711 -86.69055176 96.93087769 C-83.08383522 89.95576501 -79.44977925 82.99675526 -75.7578125 76.06640625 C-73.1121516 71.0963347 -70.52084743 66.1049104 -68.0078125 61.06640625 C-67.53988281 60.12921753 -67.53988281 60.12921753 -67.0625 59.1730957 C-65.40602511 55.84529864 -63.76062672 52.51240184 -62.12695312 49.17333984 C-41.01987239 6.03499829 -41.01987239 6.03499829 -24.6953125 -1.62109375 C-16.85509715 -4.23449887 -7.44618694 -3.50336992 0 0 Z " fill="#F0F0F0" transform="translate(512.6953125,255.62109375)"/>
<path d="M0 0 C3.51525287 0.00640249 7.03050736 0.0068503 10.54576516 0.00802541 C17.15349372 0.01109032 23.76120503 0.01923586 30.36892611 0.0293749 C37.91233253 0.04068967 45.45573993 0.04608453 52.99915278 0.05107033 C68.47125833 0.06142465 83.94334684 0.07892654 99.41543984 0.10139394 C99.74543984 0.76139394 100.07543984 1.42139394 100.41543984 2.10139394 C92.92310832 3.29495129 85.49201756 3.23550508 77.92129922 3.21491933 C76.46200969 3.21463688 75.00272002 3.21479631 73.54343057 3.21536183 C69.60186866 3.21564756 65.66033747 3.20978718 61.71878266 3.20278788 C57.5921573 3.1965169 53.46553115 3.19594758 49.33890176 3.19476247 C41.53348223 3.19166017 33.72807679 3.18346166 25.92266345 3.17341298 C17.03268529 3.1622176 8.14270644 3.15673277 -0.74727702 3.15171754 C-19.02637937 3.1412781 -37.30546863 3.12370004 -55.58456016 3.10139394 C-55.58456016 2.44139394 -55.58456016 1.78139394 -55.58456016 1.10139394 C-37.04875312 0.26177512 -18.55352358 -0.03973304 0 0 Z " fill="#FBFBFB" transform="translate(422.58456015586853,555.8986060619354)"/>
<path d="M0 0 C0.33 0.66 0.66 1.32 1 2 C44.89 2 88.78 2 134 2 C134 2.66 134 3.32 134 4 C89.78 4 45.56 4 0 4 C-0.33 3.34 -0.66 2.68 -1 2 C-0.67 1.34 -0.34 0.68 0 0 Z " fill="#FDFDFD" transform="translate(386,517)"/>
<path d="M0 0 C0.66 0.33 1.32 0.66 2 1 C2 1.66 2 2.32 2 3 C0.04072937 4.7143618 -1.95880212 6.38405168 -4 8 C-3.34 9.32 -2.68 10.64 -2 12 C-2.99 13.485 -2.99 13.485 -4 15 C-7 13 -7 13 -8 12 C-8 14.31 -8 16.62 -8 19 C-7.34 19 -6.68 19 -6 19 C-5.67 19.99 -5.34 20.98 -5 22 C-5.99 22.33 -6.98 22.66 -8 23 C-8.70226141 21.75823305 -9.38629109 20.50614401 -10.0625 19.25 C-10.44535156 18.55390625 -10.82820312 17.8578125 -11.22265625 17.140625 C-12.20217078 14.44326839 -12.20800189 13.6108428 -11 11 C-9.18957493 8.97774673 -7.39650242 7.11362028 -5.4375 5.25 C-4.91736328 4.74339844 -4.39722656 4.23679687 -3.86132812 3.71484375 C-2.58089916 2.46965595 -1.29132446 1.23388498 0 0 Z M-5 16 C-4.67 16.99 -4.34 17.98 -4 19 C-4.66 19 -5.32 19 -6 19 C-5.67 18.01 -5.34 17.02 -5 16 Z " fill="#F7F7F7" transform="translate(634,523)"/>
<path d="M0 0 C0.33 0.99 0.66 1.98 1 3 C-0.55789683 4.13136586 -2.12153857 5.25482321 -3.6875 6.375 C-4.55761719 7.00148438 -5.42773438 7.62796875 -6.32421875 8.2734375 C-8.83596952 9.89415843 -11.19299187 10.99858088 -14 12 C-14.66 11.34 -15.32 10.68 -16 10 C-15.34 10 -14.68 10 -14 10 C-13.67 9.34 -13.34 8.68 -13 8 C-12.34 8.33 -11.68 8.66 -11 9 C-10.31292445 6.50935112 -10 4.62113708 -10 2 C-6.94152152 1.45627049 -4.11227195 1 -1 1 C-0.67 0.67 -0.34 0.34 0 0 Z " fill="#F6F6F6" transform="translate(372,728)"/>
<path d="M0 0 C0.33 0 0.66 0 1 0 C1.0501123 0.56396484 1.10022461 1.12792969 1.15185547 1.70898438 C1.38640878 4.30662237 1.63064446 6.90326647 1.875 9.5 C1.95363281 10.386875 2.03226562 11.27375 2.11328125 12.1875 C2.63450954 17.64034981 3.53226492 22.72108729 5 28 C4.01 28 3.02 28 2 28 C-1.20185479 19.00431274 -1.59691311 10.43581875 -1 1 C-0.67 0.67 -0.34 0.34 0 0 Z " fill="#F6F6F6" transform="translate(266,677)"/>
<path d="M0 0 C0.66 0 1.32 0 2 0 C2 1.32 2 2.64 2 4 C1.34 4 0.68 4 0 4 C0 4.99 0 5.98 0 7 C-1.32 7.33 -2.64 7.66 -4 8 C-3.67 8.66 -3.34 9.32 -3 10 C-2.34 9.67 -1.68 9.34 -1 9 C-0.34 9.33 0.32 9.66 1 10 C0.67 10.99 0.34 11.98 0 13 C-1.65 13 -3.3 13 -5 13 C-5.103125 13.639375 -5.20625 14.27875 -5.3125 14.9375 C-5.539375 15.618125 -5.76625 16.29875 -6 17 C-6.99 17.33 -7.98 17.66 -9 18 C-8.40165275 13.85701333 -6.99335715 10.81805623 -4.9375 7.1875 C-4.11572266 5.72376953 -4.11572266 5.72376953 -3.27734375 4.23046875 C-2.64505859 3.12638672 -2.64505859 3.12638672 -2 2 C-1.34 2 -0.68 2 0 2 C0 1.34 0 0.68 0 0 Z " fill="#F8F8F8" transform="translate(414,379)"/>
<path d="M0 0 C0.66 0.33 1.32 0.66 2 1 C2 2.98 2 4.96 2 7 C0.68 7.33 -0.64 7.66 -2 8 C-2 8.99 -2 9.98 -2 11 C-2.99 11.66 -3.98 12.32 -5 13 C-5.33 13.99 -5.66 14.98 -6 16 C-6.66 16 -7.32 16 -8 16 C-7.39363716 12.21193549 -6.28838544 9.17104296 -4.5625 5.75 C-3.91474609 4.44289063 -3.91474609 4.44289063 -3.25390625 3.109375 C-2 1 -2 1 0 0 Z " fill="#F9F9F9" transform="translate(430,348)"/>
<path d="M0 0 C0.69480469 0.16371094 1.38960937 0.32742188 2.10546875 0.49609375 C5.2352816 1.04095996 8.13798083 1.09738483 11.3125 1.0625 C12.38113281 1.05347656 13.44976563 1.04445313 14.55078125 1.03515625 C15.76314453 1.01775391 15.76314453 1.01775391 17 1 C14.44948315 4.82577527 12.28235173 5.47577311 8 7 C5.0625 7.1875 5.0625 7.1875 3 7 C3 6.01 3 5.02 3 4 C2.01 3.67 1.02 3.34 0 3 C0 2.01 0 1.02 0 0 Z " fill="#F6F6F6" transform="translate(664,703)"/>
<path d="M0 0 C3.04049801 3.64859761 4.96518762 7.7444533 7 12 C5.88625 11.814375 4.7725 11.62875 3.625 11.4375 C0.17431139 10.68319343 0.17431139 10.68319343 -2 12 C-1.70703125 9.98177083 -1.4140625 7.96354167 -1.12109375 5.9453125 C-0.8315703 3.91859333 -0.8315703 3.91859333 -2 2 C-1.34 2 -0.68 2 0 2 C0 1.34 0 0.68 0 0 Z " fill="#0E0E0E" transform="translate(506,315)"/>
<path d="M0 0 C0.66 0.99 1.32 1.98 2 3 C1.125 5.6875 1.125 5.6875 0 8 C-1.66666667 8 -3.33333333 8 -5 8 C-6.4606285 5.35261084 -7 4.10551666 -7 1 C-3.535 0.505 -3.535 0.505 0 0 Z " fill="#0F0F0F" transform="translate(710,600)"/>
<path d="M0 0 C1.0725 0.103125 2.145 0.20625 3.25 0.3125 C-2.45731707 7.44664634 -2.45731707 7.44664634 -5.75 9.3125 C-6.74 8.9825 -7.73 8.6525 -8.75 8.3125 C-7.0564052 3.23171561 -5.57414563 0.46451214 0 0 Z " fill="#111111" transform="translate(605.75,451.6875)"/>
<path d="M0 0 C0.763125 0.495 1.52625 0.99 2.3125 1.5 C0.9925 1.83 -0.3275 2.16 -1.6875 2.5 C-1.6875 1.84 -1.6875 1.18 -1.6875 0.5 C-2.3475 0.5 -3.0075 0.5 -3.6875 0.5 C-4.0175 1.16 -4.3475 1.82 -4.6875 2.5 C-4.6875 1.84 -4.6875 1.18 -4.6875 0.5 C-8.9775 1.16 -13.2675 1.82 -17.6875 2.5 C-17.6875 1.51 -17.6875 0.52 -17.6875 -0.5 C-11.85125752 -2.44541416 -5.67462842 -2.30832343 0 0 Z " fill="#F6F6F6" transform="translate(710.6875,376.5)"/>
<path d="M0 0 C0.33 0.66 0.66 1.32 1 2 C1.66 2 2.32 2 3 2 C3.33 3.32 3.66 4.64 4 6 C3.01 6.495 3.01 6.495 2 7 C1.67 7.99 1.34 8.98 1 10 C0.34 10 -0.32 10 -1 10 C-1.33 10.99 -1.66 11.98 -2 13 C-2.99 13 -3.98 13 -5 13 C-4.54554036 11.58208592 -4.08625056 10.16571954 -3.625 8.75 C-3.24214844 7.56664062 -3.24214844 7.56664062 -2.8515625 6.359375 C-2.04826333 4.13372042 -1.10288338 2.09068328 0 0 Z " fill="#101010" transform="translate(395,499)"/>
<path d="M0 0 C0.99 0.33 1.98 0.66 3 1 C3 1.66 3 2.32 3 3 C2.34 3 1.68 3 1 3 C0.773125 3.804375 0.54625 4.60875 0.3125 5.4375 C-1.8054583 11.18624396 -4.43580017 16.80838791 -9 21 C-8.38367054 16.04001528 -6.20164371 12.06328034 -3.9375 7.6875 C-3.37192383 6.57665039 -3.37192383 6.57665039 -2.79492188 5.44335938 C-1.86871843 3.62612478 -0.93509371 1.81267596 0 0 Z " fill="#F9F9F9" transform="translate(452,302)"/>
<path d="M0 0 C0.71484375 1.765625 0.71484375 1.765625 1 4 C-0.43359375 5.921875 -0.43359375 5.921875 -2.4375 7.75 C-3.42556641 8.67039062 -3.42556641 8.67039062 -4.43359375 9.609375 C-5.20896484 10.29773438 -5.20896484 10.29773438 -6 11 C-6.85432111 7.89984991 -7.18380965 6.05817494 -6 3 C-3.90598151 0.33488555 -3.51745769 0 0 0 Z " fill="#161616" transform="translate(631,522)"/>
<path d="M0 0 C0.33 1.98 0.66 3.96 1 6 C-3.43076923 9.07692308 -3.43076923 9.07692308 -6.3125 8.6875 C-6.869375 8.460625 -7.42625 8.23375 -8 8 C-8.33 8.66 -8.66 9.32 -9 10 C-9.33 9.01 -9.66 8.02 -10 7 C-8.71372289 5.82739389 -7.42080217 4.6620717 -6.125 3.5 C-5.04605469 2.52546875 -5.04605469 2.52546875 -3.9453125 1.53125 C-2 0 -2 0 0 0 Z " fill="#F4F4F4" transform="translate(484,257)"/>
<path d="M0 0 C1.4540625 0.680625 1.4540625 0.680625 2.9375 1.375 C7.16579678 3.20321849 11.49109461 4.1309366 16 5 C15.67 6.32 15.34 7.64 15 9 C9.18738629 7.26017005 4.16830006 5.1889511 -1 2 C-0.67 1.34 -0.34 0.68 0 0 Z " fill="#F6F6F6" transform="translate(639,733)"/>
<path d="M0 0 C1.29315061 0.95632999 2.58446853 1.91513851 3.875 2.875 C4.59429688 3.40867187 5.31359375 3.94234375 6.0546875 4.4921875 C8 6 8 6 10 8 C9.34 8 8.68 8 8 8 C7.67 8.99 7.34 9.98 7 11 C6.34 10.67 5.68 10.34 5 10 C4.67 10.66 4.34 11.32 4 12 C3.855625 11.401875 3.71125 10.80375 3.5625 10.1875 C2.48258225 5.98781985 1.58068229 4.42562349 -2 2 C-1.34 1.34 -0.68 0.68 0 0 Z " fill="#0F0F0F" transform="translate(622,723)"/>
<path d="M0 0 C3.91402949 1.26941497 5.79072873 2.51167694 8 6 C5.09399739 7.25664978 3.20395416 8 0 8 C-0.66 6.68 -1.32 5.36 -2 4 C-1.34 3.67 -0.68 3.34 0 3 C0 2.01 0 1.02 0 0 Z " fill="#0E0E0E" transform="translate(524,648)"/>
<path d="M0 0 C2.42320774 1.67117775 3.45691229 3.67438335 4.8125 6.25 C1.8405615 5.12548273 -0.52190687 4.02706209 -3.1875 2.25 C-6.89294587 2.05149397 -9.65755387 2.07335129 -13.1875 3.25 C-12.1875 0.25 -12.1875 0.25 -10.5 -1 C-6.74163795 -2.21892823 -3.65204866 -1.25213097 0 0 Z " fill="#F9F9F9" transform="translate(508.1875,630.75)"/>
<path d="M0 0 C1.25677888 2.97056826 0.9757649 4.06866612 -0.125 7.1875 C-2 10 -2 10 -4.6875 10.875 C-5.450625 10.91625 -6.21375 10.9575 -7 11 C-4.65405405 3.62702703 -4.65405405 3.62702703 -3 1 C-2.01 0.67 -1.02 0.34 0 0 Z " fill="#F8F8F8" transform="translate(374,458)"/>
<path d="M0 0 C0.99 0 1.98 0 3 0 C1.65422692 4.28133304 -0.02013447 6.18609797 -3.625 8.8125 C-4.85089844 9.71935547 -4.85089844 9.71935547 -6.1015625 10.64453125 C-6.72804688 11.09183594 -7.35453125 11.53914063 -8 12 C-8.33 11.34 -8.66 10.68 -9 10 C-7.8758824 8.70756532 -6.75067408 7.41607925 -5.625 6.125 C-4.99851562 5.40570313 -4.37203125 4.68640625 -3.7265625 3.9453125 C-2.52573166 2.5923402 -1.2791655 1.2791655 0 0 Z " fill="#F9F9F9" transform="translate(686,381)"/>
<path d="M0 0 C1.48285242 0.95262034 2.96118201 1.91228405 4.4375 2.875 C5.67306641 3.67550781 5.67306641 3.67550781 6.93359375 4.4921875 C9 6 9 6 10 8 C8.7934375 7.7525 8.7934375 7.7525 7.5625 7.5 C4.52321323 6.90696843 2.99088136 7.22815965 0 8 C-0.66 6.68 -1.32 5.36 -2 4 C-1.34 4 -0.68 4 0 4 C0 2.68 0 1.36 0 0 Z " fill="#101010" transform="translate(564,678)"/>
<path d="M0 0 C2.86477034 1.05041579 3.83913226 1.70124563 5.3125 4.4375 C6 7 6 7 5 10 C5.33 10.66 5.66 11.32 6 12 C5.01 12 4.02 12 3 12 C0.58314288 7.77050005 -0.34833144 4.87664009 0 0 Z " fill="#E6E6E6" transform="translate(537,368)"/>
<path d="M0 0 C0.99 0.495 0.99 0.495 2 1 C2.33 0.67 2.66 0.34 3 0 C5.89932357 2.39509338 6.50168276 4.31245243 7 8 C6.01 8 5.02 8 4 8 C3.67 8.66 3.34 9.32 3 10 C-0.00617269 6.99382731 0.40414684 4.17618402 0 0 Z " fill="#101010" transform="translate(641,580)"/>
<path d="M0 0 C0.66 0.33 1.32 0.66 2 1 C0.02 4.96 -1.96 8.92 -4 13 C-6 11 -6 11 -6.125 8.375 C-6.08375 7.59125 -6.0425 6.8075 -6 6 C-5.01 5.67 -4.02 5.34 -3 5 C-3 4.01 -3 3.02 -3 2 C-2.01 1.34 -1.02 0.68 0 0 Z M-8 12 C-6 13 -6 13 -6 13 Z " fill="#171717" transform="translate(458,287)"/>
<path d="M0 0 C5.40489519 1.52012677 8.98492628 5.27385218 13 9 C12.67 9.66 12.34 10.32 12 11 C8.5625 9.75 8.5625 9.75 5 8 C4.0625 5.8125 4.0625 5.8125 4 4 C3.34 4 2.68 4 2 4 C1.34 2.68 0.68 1.36 0 0 Z " fill="#F8F8F8" transform="translate(605,660)"/>
<path d="M0 0 C0.66 0.33 1.32 0.66 2 1 C1.67 2.32 1.34 3.64 1 5 C1.66 4.01 2.32 3.02 3 2 C3 2.66 3 3.32 3 4 C3.66 4 4.32 4 5 4 C4.34 5.65 3.68 7.3 3 9 C0.03 8.505 0.03 8.505 -3 8 C-2.25 2.25 -2.25 2.25 0 0 Z " fill="#121212" transform="translate(587,526)"/>
<path d="M0 0 C0.33 0.99 0.66 1.98 1 3 C0.54625 3.391875 0.0925 3.78375 -0.375 4.1875 C-3.06727528 7.19042242 -4 9.99666851 -4 14 C-4.66 14 -5.32 14 -6 14 C-6.33 14.66 -6.66 15.32 -7 16 C-8.0169313 13.34501768 -8.13022151 12.30844625 -7.00390625 9.640625 C-6.52824219 8.85171875 -6.05257813 8.0628125 -5.5625 7.25 C-5.08941406 6.45078125 -4.61632812 5.6515625 -4.12890625 4.828125 C-3.75636719 4.22484375 -3.38382812 3.6215625 -3 3 C-2.34 3 -1.68 3 -1 3 C-0.67 2.01 -0.34 1.02 0 0 Z " fill="#F8F8F8" transform="translate(355,494)"/>
<path d="M0 0 C3.98069267 2.87494471 6.43571997 5.82117329 9 10 C6.69 10 4.38 10 2 10 C2 9.34 2 8.68 2 8 C1.34 7.67 0.68 7.34 0 7 C0 6.34 0 5.68 0 5 C0.66 5 1.32 5 2 5 C2 4.34 2 3.68 2 3 C1.34 3 0.68 3 0 3 C0 2.01 0 1.02 0 0 Z " fill="#0F0F0F" transform="translate(290,734)"/>
<path d="M0 0 C0.33 0.66 0.66 1.32 1 2 C1.99 2.33 2.98 2.66 4 3 C4.66 2.34 5.32 1.68 6 1 C6.99 1 7.98 1 9 1 C7.50902342 4.7952131 5.24299151 6.61042731 2 9 C1.34 8.67 0.68 8.34 0 8 C0 7.01 0 6.02 0 5 C-0.185625 4.29875 -0.37125 3.5975 -0.5625 2.875 C-0.706875 2.25625 -0.85125 1.6375 -1 1 C-0.67 0.67 -0.34 0.34 0 0 Z " fill="#F9F9F9" transform="translate(425,680)"/>
<path d="M0 0 C2.0625 0.4375 2.0625 0.4375 4 1 C3.34 2.65 2.68 4.3 2 6 C1.34 6 0.68 6 0 6 C-0.33 6.99 -0.66 7.98 -1 9 C-1.66 8.67 -2.32 8.34 -3 8 C-2.34 7.01 -1.68 6.02 -1 5 C-2.65 5.33 -4.3 5.66 -6 6 C-4 4 -2 2 0 0 Z " fill="#111111" transform="translate(684,438)"/>
<path d="M0 0 C0.99 0 1.98 0 3 0 C1.58192622 4.47238653 -0.11304374 8.71146306 -2 13 C-2.66 13 -3.32 13 -4 13 C-3.835 12.236875 -3.67 11.47375 -3.5 10.6875 C-2.90854604 7.96403764 -2.90854604 7.96403764 -3 5 C-1.6875 2.3125 -1.6875 2.3125 0 0 Z " fill="#F7F7F7" transform="translate(310,657)"/>
<path d="M0 0 C1.32 0.66 2.64 1.32 4 2 C3.38125 2.7425 2.7625 3.485 2.125 4.25 C0.38517714 6.50153547 -0.84794691 8.43003541 -2 11 C-2.33 11.66 -2.66 12.32 -3 13 C-3.66 12.67 -4.32 12.34 -5 12 C-3.68938409 7.76570244 -2.05643741 3.92592596 0 0 Z " fill="#FAFAFA" transform="translate(345,510)"/>
<path d="M0 0 C-0.75 2.9375 -0.75 2.9375 -2 6 C-4 6.75 -4 6.75 -6 7 C-6.66 7.66 -7.32 8.32 -8 9 C-8 5 -8 5 -5.6875 2.25 C-3 0 -3 0 0 0 Z " fill="#FAFAFA" transform="translate(615,449)"/>
<path d="M0 0 C0.66 0.33 1.32 0.66 2 1 C0.58707905 5.8274799 -1.42974154 9.7162359 -4 14 C-4.66 14 -5.32 14 -6 14 C-5.67 12.02 -5.34 10.04 -5 8 C-4.34 8 -3.68 8 -3 8 C-3 6.68 -3 5.36 -3 4 C-2.34 3.67 -1.68 3.34 -1 3 C-0.67 2.01 -0.34 1.02 0 0 Z " fill="#F7F7F7" transform="translate(422,442)"/>
<path d="M0 0 C0.66 0.66 1.32 1.32 2 2 C1.01 3.485 1.01 3.485 0 5 C0 5.99 0 6.98 0 8 C-1.65 8.33 -3.3 8.66 -5 9 C-5.33 8.34 -5.66 7.68 -6 7 C-2.25 1.125 -2.25 1.125 0 0 Z " fill="#F7F7F7" transform="translate(471,270)"/>
<path d="M0 0 C1.65 0 3.3 0 5 0 C5.2475 0.5775 5.495 1.155 5.75 1.75 C7.16683317 4.3002997 8.87627537 6.01785701 11 8 C7.43770549 8 6.58890321 7.23890991 3.8125 5.125 C3.09707031 4.59132813 2.38164063 4.05765625 1.64453125 3.5078125 C1.10183594 3.01023437 0.55914063 2.51265625 0 2 C0 1.34 0 0.68 0 0 Z " fill="#F7F7F7" transform="translate(521,643)"/>
<path d="M0 0 C0.66 0.33 1.32 0.66 2 1 C2 1.66 2 2.32 2 3 C1.54625 3.433125 1.0925 3.86625 0.625 4.3125 C-1.34309231 6.35628817 -2.06726871 8.34530324 -3 11 C-3.99 11 -4.98 11 -6 11 C-4.69862912 6.59536011 -3.26737994 3.26737994 0 0 Z " fill="#F8F8F8" transform="translate(385,435)"/>
<path d="M0 0 C0.66 0 1.32 0 2 0 C2.83819158 1.62249941 3.6704116 3.24808497 4.5 4.875 C4.9640625 5.77992188 5.428125 6.68484375 5.90625 7.6171875 C7 10 7 10 7 12 C6.34 12 5.68 12 5 12 C4.67 11.34 4.34 10.68 4 10 C3.01 9.34 2.02 8.68 1 8 C1 6.68 1 5.36 1 4 C0.34 3.67 -0.32 3.34 -1 3 C-0.67 2.01 -0.34 1.02 0 0 Z " fill="#F9F9F9" transform="translate(537,291)"/>
<path d="M0 0 C1.52519276 0.08937803 3.04681929 0.24537146 4.5625 0.4375 C5.80193359 0.59025391 5.80193359 0.59025391 7.06640625 0.74609375 C7.70449219 0.82988281 8.34257813 0.91367187 9 1 C9 1.99 9 2.98 9 4 C7.36605745 5.63394255 6.31016597 5.87165745 4 6 C1.25 3.5625 1.25 3.5625 -1 1 C-0.67 0.67 -0.34 0.34 0 0 Z " fill="#111111" transform="translate(595,649)"/>
<path d="M0 0 C7.57142857 3 7.57142857 3 10 6 C9.67 6.99 9.34 7.98 9 9 C8.67 8.34 8.34 7.68 8 7 C7.21625 6.690625 6.4325 6.38125 5.625 6.0625 C3.02412163 5.00976352 1.72372195 4.177333 0 2 C0 1.34 0 0.68 0 0 Z M4 8 C4.33 8.66 4.66 9.32 5 10 C4.34 9.67 3.68 9.34 3 9 C3.33 8.67 3.66 8.34 4 8 Z " fill="#F8F8F8" transform="translate(533,604)"/>
<path d="M0 0 C0.68359375 1.640625 0.68359375 1.640625 1 4 C-0.21484375 6.796875 -0.21484375 6.796875 -1.9375 9.75 C-2.50339844 10.73484375 -3.06929688 11.7196875 -3.65234375 12.734375 C-4.09707031 13.48203125 -4.54179687 14.2296875 -5 15 C-5.66 14.34 -6.32 13.68 -7 13 C-7 12.01 -7 11.02 -7 10 C-6.34 10 -5.68 10 -5 10 C-5 9.34 -5 8.68 -5 8 C-4.34 7.67 -3.68 7.34 -3 7 C-1.94647157 4.69034152 -0.94280904 2.3570226 0 0 Z " fill="#FBFBFB" transform="translate(472,346)"/>
<path d="M0 0 C0.33 1.32 0.66 2.64 1 4 C0.67 3.34 0.34 2.68 0 2 C-1.98 2.33 -3.96 2.66 -6 3 C-5.67 3.99 -5.34 4.98 -5 6 C-6.98 6.33 -8.96 6.66 -11 7 C-6.42400881 -0.16905286 -6.42400881 -0.16905286 0 0 Z " fill="#121212" transform="translate(733,716)"/>
<path d="M0 0 C0.33 0.99 0.66 1.98 1 3 C-0.09601169 4.00893131 -1.20213918 5.00688225 -2.3125 6 C-3.23482422 6.8353125 -3.23482422 6.8353125 -4.17578125 7.6875 C-6 9 -6 9 -9 9 C-7.48328036 4.44984107 -3.83108947 2.49942736 0 0 Z " fill="#F8F8F8" transform="translate(354,695)"/>
<path d="M0 0 C0.33 0 0.66 0 1 0 C1.02709444 2.08326131 1.04643873 4.16662441 1.0625 6.25 C1.07410156 7.41015625 1.08570313 8.5703125 1.09765625 9.765625 C1.01782092 12.40977128 0.78643778 14.49826091 0 17 C-0.99 16.67 -1.98 16.34 -3 16 C-3.20086443 12.28400809 -3.1519437 11.22791555 -1 8 C-0.54860541 5.9507906 -0.54860541 5.9507906 -0.375 3.8125 C-0.25125 2.554375 -0.1275 1.29625 0 0 Z " fill="#FAFAFA" transform="translate(735,681)"/>
<path d="M0 0 C3.79588866 0.54226981 5.47211993 2.20127563 8 5 C6.55245745 6.44754255 4.96037087 6.55733561 3 7 C0 3.375 0 3.375 0 0 Z " fill="#0F0F0F" transform="translate(544,664)"/>
<path d="M0 0 C0.99 0.33 1.98 0.66 3 1 C0.13463296 5.07763771 -2.43041625 7.02677065 -7 9 C-7.66 8.34 -8.32 7.68 -9 7 C-4.25 4 -4.25 4 -2 4 C-1.67 3.01 -1.34 2.02 -1 1 C-0.67 0.67 -0.34 0.34 0 0 Z " fill="#F8F8F8" transform="translate(578,530)"/>
<path d="M0 0 C2.31 0.33 4.62 0.66 7 1 C5.125 6.75 5.125 6.75 4 9 C3.34 9 2.68 9 2 9 C1.855625 8.2575 1.71125 7.515 1.5625 6.75 C1.09812508 4.47972261 0.58136431 2.24240521 0 0 Z " fill="#F8F8F8" transform="translate(392,490)"/>
<path d="M0 0 C0 2.33333333 0 4.66666667 0 7 C0.66 7.33 1.32 7.66 2 8 C1.67 8.99 1.34 9.98 1 11 C-1.97 10.505 -1.97 10.505 -5 10 C-4.54857119 8.70590408 -4.08858979 7.41478941 -3.625 6.125 C-3.36976563 5.40570313 -3.11453125 4.68640625 -2.8515625 3.9453125 C-2 2 -2 2 0 0 Z " fill="#121212" transform="translate(677,444)"/>
<path d="M0 0 C0.66 0.33 1.32 0.66 2 1 C0.85569823 4.87302138 -0.23320098 8.00263439 -3 11 C-3.66 11 -4.32 11 -5 11 C-4.690625 10.278125 -4.38125 9.55625 -4.0625 8.8125 C-2.92500584 6.05721403 -2.92500584 6.05721403 -2.5 3.25 C-2.335 2.5075 -2.17 1.765 -2 1 C-1.34 0.67 -0.68 0.34 0 0 Z " fill="#121212" transform="translate(448,305)"/>
<path d="M0 0 C0.66 0 1.32 0 2 0 C3.98 3.96 5.96 7.92 8 12 C4.17889511 10.08944756 3.04600836 9.50744291 1 6 C0.3125 2.75 0.3125 2.75 0 0 Z " fill="#F7F7F7" transform="translate(708,615)"/>
<path d="M0 0 C0.99 0.66 1.98 1.32 3 2 C3.45892595 5.51843231 3.41140736 7.34860502 1.5 10.375 C1.005 10.91125 0.51 11.4475 0 12 C-1.125 10.3125 -1.125 10.3125 -2 8 C-1.125 5.4375 -1.125 5.4375 0 3 C0 2.01 0 1.02 0 0 Z " fill="#131313" transform="translate(378,434)"/>
<path d="M0 0 C1.32 0.66 2.64 1.32 4 2 C0.96474514 4.02350324 -0.19426202 4.32124018 -3.6875 4.625 C-4.49574219 4.69976563 -5.30398438 4.77453125 -6.13671875 4.8515625 C-7.05904297 4.92503906 -7.05904297 4.92503906 -8 5 C-7.67 3.68 -7.34 2.36 -7 1 C-6.34 1 -5.68 1 -5 1 C-5 1.66 -5 2.32 -5 3 C-3.35 2.67 -1.7 2.34 0 2 C0 1.34 0 0.68 0 0 Z " fill="#F8F8F8" transform="translate(536,552)"/>
<path d="M0 0 C0.33 0.99 0.66 1.98 1 3 C-0.12073862 3.83905565 -1.24674547 4.67107831 -2.375 5.5 C-3.00148438 5.9640625 -3.62796875 6.428125 -4.2734375 6.90625 C-6 8 -6 8 -8 8 C-6.52307692 3.32307692 -6.52307692 3.32307692 -3.875 1.6875 C-2.946875 1.3471875 -2.946875 1.3471875 -2 1 C-1.67 1.33 -1.34 1.66 -1 2 C-0.67 1.34 -0.34 0.68 0 0 Z " fill="#F9F9F9" transform="translate(572,488)"/>
<path d="M0 0 C0.99 0.33 1.98 0.66 3 1 C2.6875 3.375 2.6875 3.375 2 6 C1.01 6.66 0.02 7.32 -1 8 C-1.66 7.34 -2.32 6.68 -3 6 C-2.75 3.4375 -2.75 3.4375 -2 1 C-1.34 0.67 -0.68 0.34 0 0 Z " fill="#E9E9E9" transform="translate(629,482)"/>
<path d="M0 0 C0.99 0 1.98 0 3 0 C2.4140625 6.15234375 2.4140625 6.15234375 2 8 C1.01 8.495 1.01 8.495 0 9 C0.020625 8.195625 0.04125 7.39125 0.0625 6.5625 C0.29633621 4.06645115 0.29633621 4.06645115 -1 3 C-1 4.65 -1 6.3 -1 8 C-1.99 7.67 -2.98 7.34 -4 7 C-1.125 1.125 -1.125 1.125 0 0 Z " fill="#E8E8E8" transform="translate(580,478)"/>
<path d="M0 0 C0.66 0.33 1.32 0.66 2 1 C2 1.99 2 2.98 2 4 C2.99 4.33 3.98 4.66 5 5 C3.35 6.32 1.7 7.64 0 9 C-1.5625 7.1875 -1.5625 7.1875 -3 5 C-2.67 4.01 -2.34 3.02 -2 2 C-1.34 2 -0.68 2 0 2 C0 1.34 0 0.68 0 0 Z " fill="#111111" transform="translate(603,402)"/>
<path d="M0 0 C2.23915424 0.73602403 2.23915424 0.73602403 5.0625 -0.5 C3.60994301 3.32946843 1.63354439 4.62050295 -1.9375 6.5 C-1.6075 4.85 -1.2775 3.2 -0.9375 1.5 C-1.9275 1.17 -2.9175 0.84 -3.9375 0.5 C-1.9375 -0.5 -1.9375 -0.5 0 0 Z " fill="#F6F6F6" transform="translate(399.9375,704.5)"/>
<path d="M0 0 C6.875 1.875 6.875 1.875 8 3 C8.04063832 4.66617115 8.042721 6.33388095 8 8 C6.66102417 7.04956626 5.32894573 6.08940853 4 5.125 C3.2575 4.59132813 2.515 4.05765625 1.75 3.5078125 C1.1725 3.01023437 0.595 2.51265625 0 2 C0 1.34 0 0.68 0 0 Z " fill="#F7F7F7" transform="translate(568,679)"/>
<path d="M0 0 C1.9375 0.8125 1.9375 0.8125 4 2 C5 5 5 5 4 8 C3.01 7.67 2.02 7.34 1 7 C0.67 4.69 0.34 2.38 0 0 Z M-1 7 C1 8 1 8 1 8 Z " fill="#0E0E0E" transform="translate(265,655)"/>
<path d="M0 0 C3 0 3 0 6 1 C7.1875 4.0625 7.1875 4.0625 8 7 C6.02 7.33 4.04 7.66 2 8 C3.32 7.34 4.64 6.68 6 6 C6 5.34 6 4.68 6 4 C5.34 4 4.68 4 4 4 C3.34 4.66 2.68 5.32 2 6 C1.34 4.02 0.68 2.04 0 0 Z " fill="#F8F8F8" transform="translate(657,527)"/>
<path d="M0 0 C-0.875 4.75 -0.875 4.75 -2 7 C-2.66 7 -3.32 7 -4 7 C-4.66 4.69 -5.32 2.38 -6 0 C-3.50907189 -1.24546405 -2.58919267 -0.7767578 0 0 Z " fill="#0F0F0F" transform="translate(342,515)"/>
<path d="M0 0 C2.64 0 5.28 0 8 0 C6.68 1.65 5.36 3.3 4 5 C2.68 4.34 1.36 3.68 0 3 C0 2.01 0 1.02 0 0 Z M-2 3 C-1.34 3.33 -0.68 3.66 0 4 C-0.99 4 -1.98 4 -3 4 C-2.67 3.67 -2.34 3.34 -2 3 Z " fill="#171717" transform="translate(613,441)"/>
<path d="M0 0 C0.598125 0.226875 1.19625 0.45375 1.8125 0.6875 C0.8125 3.6875 0.8125 3.6875 -2.25 5.375 C-3.219375 5.808125 -4.18875 6.24125 -5.1875 6.6875 C-5.1875 2.6875 -5.1875 2.6875 -3.9375 0.875 C-2.1875 -0.3125 -2.1875 -0.3125 0 0 Z " fill="#121212" transform="translate(707.1875,418.3125)"/>
<path d="M0 0 C0.6875 1.625 0.6875 1.625 1 4 C-0.4375 7.25 -0.4375 7.25 -2 10 C-3.32 9.34 -4.64 8.68 -6 8 C-5.67 7.34 -5.34 6.68 -5 6 C-4.67 5.01 -4.34 4.02 -4 3 C-3.01 3 -2.02 3 -1 3 C-0.67 2.01 -0.34 1.02 0 0 Z " fill="#121212" transform="translate(393,413)"/>
<path d="M0 0 C0.33 0 0.66 0 1 0 C1 1.98 1 3.96 1 6 C0.67 5.34 0.34 4.68 0 4 C-0.66 4 -1.32 4 -2 4 C-2.66 6.31 -3.32 8.62 -4 11 C-4.66 9.68 -5.32 8.36 -6 7 C-5.02433888 5.83040013 -4.044375 4.66438823 -3.0625 3.5 C-2.51722656 2.8503125 -1.97195313 2.200625 -1.41015625 1.53125 C-0.71212891 0.77328125 -0.71212891 0.77328125 0 0 Z " fill="#F9F9F9" transform="translate(660,405)"/>
<path d="M0 0 C1.859375 0.21484375 1.859375 0.21484375 4 1 C5.265625 3.06640625 5.265625 3.06640625 6.25 5.5625 C6.58515625 6.38878906 6.9203125 7.21507812 7.265625 8.06640625 C7.50796875 8.70449219 7.7503125 9.34257812 8 10 C7.34 10 6.68 10 6 10 C5.34 10.66 4.68 11.32 4 12 C3.855625 10.906875 3.71125 9.81375 3.5625 8.6875 C3.11711896 5.06877013 3.11711896 5.06877013 2 2 C1.34 2 0.68 2 0 2 C0 1.34 0 0.68 0 0 Z " fill="#F7F7F7" transform="translate(561,339)"/>
<path d="M0 0 C1.32 0.33 2.64 0.66 4 1 C4 1.66 4 2.32 4 3 C5.32 3 6.64 3 8 3 C6.768606 5.46278801 5.21935077 6.42497687 3 8 C0 2.25 0 2.25 0 0 Z " fill="#F6F6F6" transform="translate(519,337)"/>
<path d="M0 0 C2.0625 0.4375 2.0625 0.4375 4 1 C2.68 3.31 1.36 5.62 0 8 C-1.32 7.67 -2.64 7.34 -4 7 C-1.125 1.125 -1.125 1.125 0 0 Z " fill="#101010" transform="translate(468,266)"/>
<path d="M0 0 C0.99 0.66 1.98 1.32 3 2 C2.5020163 5.73487777 2.12508244 7.81237635 0 11 C-0.66 10.67 -1.32 10.34 -2 10 C-2.1875 7.625 -2.1875 7.625 -2 5 C-1.01 4.34 -0.02 3.68 1 3 C0.67 2.01 0.34 1.02 0 0 Z " fill="#F9F9F9" transform="translate(315,643)"/>
<path d="M0 0 C0.99 0.33 1.98 0.66 3 1 C4.1875 4.0625 4.1875 4.0625 5 7 C4.34 7 3.68 7 3 7 C2.67 7.66 2.34 8.32 2 9 C0.4375 7.875 0.4375 7.875 -1 6 C-0.6875 2.8125 -0.6875 2.8125 0 0 Z " fill="#F7F7F7" transform="translate(689,581)"/>
<path d="M0 0 C0.99 0.33 1.98 0.66 3 1 C4.6875 4.5625 4.6875 4.5625 6 8 C2.62496331 6.8141763 0.35277269 5.72426311 -2 3 C-1.34 2.01 -0.68 1.02 0 0 Z " fill="#F8F8F8" transform="translate(683,570)"/>
<path d="M0 0 C0.99 0.33 1.98 0.66 3 1 C4.6875 4.5625 4.6875 4.5625 6 8 C4.35 8.33 2.7 8.66 1 9 C0.67 8.01 0.34 7.02 0 6 C0.33 5.34 0.66 4.68 1 4 C0.60061233 1.90178785 0.60061233 1.90178785 0 0 Z " fill="#F8F8F8" transform="translate(672,550)"/>
<path d="M0 0 C1.98 0.99 1.98 0.99 4 2 C3.67 2.33 3.34 2.66 3 3 C3.66 3.33 4.32 3.66 5 4 C4.34 5.98 3.68 7.96 3 10 C1.5 8.9375 1.5 8.9375 0 7 C-0.1875 3.3125 -0.1875 3.3125 0 0 Z " fill="#E8E8E8" transform="translate(401,474)"/>
<path d="M0 0 C0.5775 0.226875 1.155 0.45375 1.75 0.6875 C0.47530598 3.23688804 -0.74159226 3.43329613 -3.25 4.6875 C-4.95921589 6.2287312 -4.95921589 6.2287312 -6.25 7.6875 C-6.91 7.3575 -7.57 7.0275 -8.25 6.6875 C-6.65594781 2.8352072 -4.57967475 -0.63606594 0 0 Z " fill="#020202" transform="translate(722.25,405.3125)"/>
<path d="M0 0 C0.99 0.66 1.98 1.32 3 2 C2.01 3.98 1.02 5.96 0 8 C-0.99 8 -1.98 8 -3 8 C-3 7.01 -3 6.02 -3 5 C-3.3062434 3.66018514 -3.63451555 2.32488113 -4 1 C-2.68 1.33 -1.36 1.66 0 2 C0 1.34 0 0.68 0 0 Z " fill="#121212" transform="translate(424,351)"/>
<path d="M0 0 C1 3 1 3 -0.4375 6.1875 C-1.2109375 7.5796875 -1.2109375 7.5796875 -2 9 C-5 8 -5 8 -6.1875 5.9375 C-6.455625 5.298125 -6.72375 4.65875 -7 4 C-6.01 3.67 -5.02 3.34 -4 3 C-2.64377755 2.03126968 -1.30582947 1.03565785 0 0 Z " fill="#F8F8F8" transform="translate(479,333)"/>
<path d="M0 0 C1.32 0 2.64 0 4 0 C4.66 0.99 5.32 1.98 6 3 C5.67 3.99 5.34 4.98 5 6 C3.02 5.34 1.04 4.68 -1 4 C-0.67 2.68 -0.34 1.36 0 0 Z " fill="#E9E9E9" transform="translate(401,657)"/>
<path d="M0 0 C-1.1875 2 -1.1875 2 -3 4 C-5.6875 4.25 -5.6875 4.25 -8 4 C-8.33 3.01 -8.66 2.02 -9 1 C-6.04335481 -0.4783226 -3.25770263 -0.06032783 0 0 Z " fill="#141414" transform="translate(505,632)"/>
<path d="M0 0 C2.475 0.99 2.475 0.99 5 2 C4.375 3.875 4.375 3.875 3 6 C-0.125 7.25 -0.125 7.25 -3 8 C-3 7.01 -3 6.02 -3 5 C-1.68 4.67 -0.36 4.34 1 4 C0.67 2.68 0.34 1.36 0 0 Z " fill="#F9F9F9" transform="translate(578,434)"/>
<path d="M0 0 C1.32 0.33 2.64 0.66 4 1 C2.68 3.64 1.36 6.28 0 9 C-0.66 9 -1.32 9 -2 9 C-2.25 3.375 -2.25 3.375 0 0 Z " fill="#FAFAFA" transform="translate(434,417)"/>
<path d="M0 0 C1.32 0.99 2.64 1.98 4 3 C2.71034824 4.37562854 1.37310707 5.70766393 0 7 C-0.66 7 -1.32 7 -2 7 C-2 6.01 -2 5.02 -2 4 C-2.66 3.67 -3.32 3.34 -4 3 C-2.68 2.01 -1.36 1.02 0 0 Z " fill="#E8E8E8" transform="translate(691,377)"/>
<path d="M0 0 C0.33 0.99 0.66 1.98 1 3 C0.67 3.33 0.34 3.66 0 4 C1.32 4 2.64 4 4 4 C4 4.66 4 5.32 4 6 C-2.0546875 6.9765625 -2.0546875 6.9765625 -4 7 C-4.66 6.34 -5.32 5.68 -6 5 C-4.02 3.35 -2.04 1.7 0 0 Z " fill="#111111" transform="translate(457,664)"/>
<path d="M0 0 C1.32 0 2.64 0 4 0 C4 2.31 4 4.62 4 7 C3.38125 6.649375 2.7625 6.29875 2.125 5.9375 C1.073125 5.4734375 1.073125 5.4734375 0 5 C-0.99 5.495 -0.99 5.495 -2 6 C-1.34 4.02 -0.68 2.04 0 0 Z " fill="#121212" transform="translate(347,593)"/>
<path d="M0 0 C0.66 0 1.32 0 2 0 C2.75 1.6875 2.75 1.6875 3 4 C1.25 6.75 1.25 6.75 -1 9 C-1.99 9 -2.98 9 -4 9 C-4 7 -4 7 -2 4.875 C-1.34 4.25625 -0.68 3.6375 0 3 C-0.66 2.67 -1.32 2.34 -2 2 C-1.34 1.34 -0.68 0.68 0 0 Z " fill="#E6E6E6" transform="translate(651,508)"/>
<path d="M0 0 C0.99 0 1.98 0 3 0 C3.69710731 1.28650706 4.38242876 2.57940665 5.0625 3.875 C5.63677734 4.95394531 5.63677734 4.95394531 6.22265625 6.0546875 C6.47917969 6.69664062 6.73570312 7.33859375 7 8 C6.67 8.66 6.34 9.32 6 10 C2.51668565 6.98112756 1.20842856 4.43090471 0 0 Z " fill="#F9F9F9" transform="translate(523,345)"/>
<path d="M0 0 C2.31 0 4.62 0 7 0 C7 0.66 7 1.32 7 2 C8.65 2.33 10.3 2.66 12 3 C12 3.33 12 3.66 12 4 C9.69 4 7.38 4 5 4 C5 3.34 5 2.68 5 2 C3.02 2.33 1.04 2.66 -1 3 C-0.67 2.01 -0.34 1.02 0 0 Z " fill="#010101" transform="translate(672,746)"/>
<path d="M0 0 C0.33 0.99 0.66 1.98 1 3 C-1.97 5.475 -1.97 5.475 -5 8 C-4.814375 7.21625 -4.62875 6.4325 -4.4375 5.625 C-3.74037734 3.02910225 -3.74037734 3.02910225 -5 1 C-3.35 0.67 -1.7 0.34 0 0 Z " fill="#DEDEDE" transform="translate(721,721)"/>
<path d="M0 0 C2.31 1.65 4.62 3.3 7 5 C6.01 5 5.02 5 4 5 C1.84971696 5.94978897 1.84971696 5.94978897 0 7 C-0.38133299 5.0085944 -0.71325582 3.00720923 -1 1 C-0.67 0.67 -0.34 0.34 0 0 Z " fill="#F7F7F7" transform="translate(569,631)"/>
<path d="M0 0 C2.475 0.495 2.475 0.495 5 1 C5 3.97 5 6.94 5 10 C2.35534962 6.8745041 1.15585285 3.91211733 0 0 Z " fill="#E8E8E8" transform="translate(633,557)"/>
<path d="M0 0 C0.33 0.99 0.66 1.98 1 3 C1.66 3 2.32 3 3 3 C2.79375 3.61875 2.5875 4.2375 2.375 4.875 C2.25125 5.57625 2.1275 6.2775 2 7 C2.66 7.66 3.32 8.32 4 9 C2.125 8.75 2.125 8.75 0 8 C-1.375 6.1875 -1.375 6.1875 -2 4 C-1.125 1.75 -1.125 1.75 0 0 Z " fill="#0F0F0F" transform="translate(412,466)"/>
<path d="M0 0 C0.33 0.99 0.66 1.98 1 3 C-0.32 3.33 -1.64 3.66 -3 4 C-3.33 5.32 -3.66 6.64 -4 8 C-5.32 7.34 -6.64 6.68 -8 6 C-7.0479279 4.99403703 -6.08812654 3.99538437 -5.125 3 C-4.59132813 2.443125 -4.05765625 1.88625 -3.5078125 1.3125 C-2 0 -2 0 0 0 Z " fill="#FAFAFA" transform="translate(627,437)"/>
<path d="M0 0 C1 3 1 3 -0.4375 6.1875 C-1.2109375 7.5796875 -1.2109375 7.5796875 -2 9 C-2.99 9 -3.98 9 -5 9 C-3.90931332 5.22454612 -3.0916909 2.52956528 0 0 Z " fill="#FAFAFA" transform="translate(397,412)"/>
<path d="M0 0 C0.99 0.33 1.98 0.66 3 1 C1.95125002 3.62187494 1.35068687 4.79371361 -1.125 6.25 C-1.74375 6.4975 -2.3625 6.745 -3 7 C-3 4 -3 4 -2 2 C-1.34 2 -0.68 2 0 2 C0 1.34 0 0.68 0 0 Z " fill="#FAFAFA" transform="translate(715,404)"/>
<path d="M0 0 C0.66 0.33 1.32 0.66 2 1 C2.125 6.75 2.125 6.75 1 9 C0.34 9 -0.32 9 -1 9 C-1.09765625 2.84765625 -1.09765625 2.84765625 -1 1 C-0.67 0.67 -0.34 0.34 0 0 Z " fill="#E2E2E2" transform="translate(720,391)"/>
<path d="M0 0 C0.99 0 1.98 0 3 0 C1.94124926 3.40312738 0.99097846 6.01353231 -1 9 C-1.66 9 -2.32 9 -3 9 C-3 7.68 -3 6.36 -3 5 C-2.34 4.67 -1.68 4.34 -1 4 C-0.34786708 1.97536745 -0.34786708 1.97536745 0 0 Z " fill="#F9F9F9" transform="translate(460,368)"/>
<path d="M0 0 C0.78375 0.185625 1.5675 0.37125 2.375 0.5625 C4.97089775 1.25962266 4.97089775 1.25962266 7 0 C6.67 1.65 6.34 3.3 6 5 C3.03 4.505 3.03 4.505 0 4 C0 2.68 0 1.36 0 0 Z " fill="#121212" transform="translate(594,706)"/>
<path d="M0 0 C0.33 0.66 0.66 1.32 1 2 C1.99 2.33 2.98 2.66 4 3 C3.67 4.32 3.34 5.64 3 7 C0.525 6.01 0.525 6.01 -2 5 C-1.34 3.35 -0.68 1.7 0 0 Z " fill="#131313" transform="translate(316,698)"/>
<path d="M0 0 C1.9375 0.3125 1.9375 0.3125 4 1 C4.33 1.99 4.66 2.98 5 4 C5.99 4.33 6.98 4.66 8 5 C7.34 5 6.68 5 6 5 C5.67 5.66 5.34 6.32 5 7 C2.5 5.75 2.5 5.75 0 4 C0 2.68 0 1.36 0 0 Z " fill="#131313" transform="translate(658,696)"/>
<path d="M0 0 C1.65 0.33 3.3 0.66 5 1 C3.35 2.65 1.7 4.3 0 6 C-0.99 5.67 -1.98 5.34 -3 5 C-2.67 3.68 -2.34 2.36 -2 1 C-1.67 1.33 -1.34 1.66 -1 2 C-0.67 1.34 -0.34 0.68 0 0 Z " fill="#0E0E0E" transform="translate(380,669)"/>
<path d="M0 0 C0.99 0.33 1.98 0.66 3 1 C1.02 3.97 1.02 3.97 -1 7 C-2.32 6.67 -3.64 6.34 -5 6 C-3.86525052 2.59575156 -3.03188696 1.78346291 0 0 Z " fill="#F9F9F9" transform="translate(408,652)"/>
<path d="M0 0 C1.65 0.33 3.3 0.66 5 1 C0.25 5.875 0.25 5.875 -2 7 C-1.34 4.69 -0.68 2.38 0 0 Z " fill="#0E0E0E" transform="translate(444,618)"/>
<path d="M0 0 C3 1 3 1 4.75 3.875 C6 7 6 7 5 10 C4.15801693 8.90241493 3.32669329 7.79664683 2.5 6.6875 C2.0359375 6.07261719 1.571875 5.45773437 1.09375 4.82421875 C0 3 0 3 0 0 Z " fill="#FAFAFA" transform="translate(700,601)"/>
<path d="M0 0 C5.66153846 1.47692308 5.66153846 1.47692308 7.375 4.125 C7.684375 5.053125 7.684375 5.053125 8 6 C5.6875 6.25 5.6875 6.25 3 6 C1.02389614 3.95575462 0 2.8823175 0 0 Z " fill="#F9F9F9" transform="translate(519,594)"/>
<path d="M0 0 C0.66 0.33 1.32 0.66 2 1 C1.67 1.33 1.34 1.66 1 2 C1.66 2.66 2.32 3.32 3 4 C2.34 5.32 1.68 6.64 1 8 C-0.89213369 5.61426621 -2.02391783 3.92824652 -3 1 C-2.01 0.67 -1.02 0.34 0 0 Z " fill="#E7E7E7" transform="translate(651,585)"/>
<path d="M0 0 C0.66 0.33 1.32 0.66 2 1 C0.75023244 4.65316671 0.32901247 5.78065836 -3 8 C-3.66 7.67 -4.32 7.34 -5 7 C-3.70700306 4.11562221 -2.34058637 2.12780579 0 0 Z " fill="#141414" transform="translate(595,519)"/>
<path d="M0 0 C0.33 0.99 0.66 1.98 1 3 C0.01 3.66 -0.98 4.32 -2 5 C-2.33 4.34 -2.66 3.68 -3 3 C-3.66 3.66 -4.32 4.32 -5 5 C-5.99 5 -6.98 5 -8 5 C-7.67 3.68 -7.34 2.36 -7 1 C-6.01 1 -5.02 1 -4 1 C-2.66018514 0.6937566 -1.32488113 0.36548445 0 0 Z " fill="#141414" transform="translate(633,427)"/>
<path d="M0 0 C0.66 0.33 1.32 0.66 2 1 C2.33 1.99 2.66 2.98 3 4 C1.35 5.32 -0.3 6.64 -2 8 C-2.125 5.125 -2.125 5.125 -2 2 C-1.34 1.34 -0.68 0.68 0 0 Z " fill="#E5E5E5" transform="translate(710,408)"/>
<path d="M0 0 C3.0916909 2.52956528 3.90931332 5.22454612 5 9 C4.01 9.495 4.01 9.495 3 10 C0 4.25 0 4.25 0 2 C-0.99 1.67 -1.98 1.34 -3 1 C-2.01 0.67 -1.02 0.34 0 0 Z " fill="#F7F7F7" transform="translate(590,389)"/>
<path d="M0 0 C-1.75 5.75 -1.75 5.75 -4 8 C-4 7.34 -4 6.68 -4 6 C-4.66 6 -5.32 6 -6 6 C-5.67 4.35 -5.34 2.7 -5 1 C-2 0 -2 0 0 0 Z " fill="#E7E7E7" transform="translate(456,382)"/>
<path d="M0 0 C1.32 0.66 2.64 1.32 4 2 C3.67 3.98 3.34 5.96 3 8 C2.34 8 1.68 8 1 8 C0.26919734 6.02253397 -0.39421747 4.01927511 -1 2 C-0.67 1.34 -0.34 0.68 0 0 Z " fill="#111111" transform="translate(580,364)"/>
<path d="M0 0 C0.33 0.99 0.66 1.98 1 3 C1.66 3.33 2.32 3.66 3 4 C3.33 3.34 3.66 2.68 4 2 C4.33 3.32 4.66 4.64 5 6 C1.79604584 6 -0.09399739 5.25664978 -3 4 C-2.01 2.68 -1.02 1.36 0 0 Z " fill="#111111" transform="translate(715,729)"/>
<path d="M0 0 C0.66 0.33 1.32 0.66 2 1 C0.68938409 5.23429756 -0.94356259 9.07407404 -3 13 C-3.66 12.67 -4.32 12.34 -5 12 C-4.72285156 11.38511719 -4.44570313 10.77023437 -4.16015625 10.13671875 C-3.61681641 8.92435547 -3.61681641 8.92435547 -3.0625 7.6875 C-2.52302734 6.48673828 -2.52302734 6.48673828 -1.97265625 5.26171875 C-0.92153959 2.90510392 -0.92153959 2.90510392 0 0 Z " fill="#020202" transform="translate(278,634)"/>
<path d="M0 0 C0.33 0.99 0.66 1.98 1 3 C0.34 3 -0.32 3 -1 3 C-0.34 4.65 0.32 6.3 1 8 C0.01 8.495 0.01 8.495 -1 9 C-1.99 8.01 -2.98 7.02 -4 6 C-2.68 4.02 -1.36 2.04 0 0 Z " fill="#E7E7E7" transform="translate(292,614)"/>
<path d="M0 0 C1.485 0.99 1.485 0.99 3 2 C3 2.99 3 3.98 3 5 C3.66 5 4.32 5 5 5 C5.33 6.65 5.66 8.3 6 10 C4.68 9.67 3.36 9.34 2 9 C1.34 6.03 0.68 3.06 0 0 Z " fill="#111111" transform="translate(697,588)"/>
<path d="M0 0 C2 3 2 3 1.625 5.6875 C1.41875 6.450625 1.2125 7.21375 1 8 C0.34 7.67 -0.32 7.34 -1 7 C-1.33 7.66 -1.66 8.32 -2 9 C-2.66 8.67 -3.32 8.34 -4 8 C-2.68 5.36 -1.36 2.72 0 0 Z " fill="#E9E9E9" transform="translate(356,488)"/>
<path d="M0 0 C0.66 0.33 1.32 0.66 2 1 C-0.64 3.64 -3.28 6.28 -6 9 C-6.66 8.67 -7.32 8.34 -8 8 C-6.81775332 5.63550664 -5.45903319 4.56573685 -3.4375 2.875 C-2.79683594 2.33617187 -2.15617188 1.79734375 -1.49609375 1.2421875 C-0.75552734 0.62730469 -0.75552734 0.62730469 0 0 Z " fill="#FBFBFB" transform="translate(665,453)"/>
<path d="M0 0 C0.66 0.33 1.32 0.66 2 1 C1.67 1.66 1.34 2.32 1 3 C2.32 3.66 3.64 4.32 5 5 C4.67 6.65 4.34 8.3 4 10 C3.01 9.67 2.02 9.34 1 9 C1.66 8.01 2.32 7.02 3 6 C2.34 5.67 1.68 5.34 1 5 C-0.125 2.9375 -0.125 2.9375 -1 1 C-0.67 0.67 -0.34 0.34 0 0 Z " fill="#E7E7E7" transform="translate(547,385)"/>
<path d="M0 0 C1 3 1 3 -0.4375 6.1875 C-1.2109375 7.5796875 -1.2109375 7.5796875 -2 9 C-2.99 8.01 -3.98 7.02 -5 6 C-4.34 6 -3.68 6 -3 6 C-3 5.01 -3 4.02 -3 3 C-1.5 1.3125 -1.5 1.3125 0 0 Z " fill="#181818" transform="translate(408,385)"/>
<path d="M0 0 C0.33 0.66 0.66 1.32 1 2 C0.34 1.67 -0.32 1.34 -1 1 C-0.67 0.67 -0.34 0.34 0 0 Z M0 3 C-2.17424117 5.50037734 -3.73045798 6.43628586 -7 7 C-7 6.01 -7 5.02 -7 4 C-3.375 1.875 -3.375 1.875 0 3 Z " fill="#181818" transform="translate(366,735)"/>
<path d="M0 0 C0 1.98 0 3.96 0 6 C0.99 6.33 1.98 6.66 3 7 C1.68 7.33 0.36 7.66 -1 8 C-2.4606285 5.35261084 -3 4.10551666 -3 1 C-1 0 -1 0 0 0 Z " fill="#EAEAEA" transform="translate(692,657)"/>
<path d="M0 0 C1.98 0.66 3.96 1.32 6 2 C2.81237635 4.12508244 0.73487777 4.5020163 -3 5 C-3 4.01 -3 3.02 -3 2 C-2.34 2.33 -1.68 2.66 -1 3 C-0.67 2.01 -0.34 1.02 0 0 Z " fill="#E8E8E8" transform="translate(572,635)"/>
<path d="M0 0 C3.82946843 1.45255699 5.12050295 3.42895561 7 7 C5.68 7 4.36 7 3 7 C2.01 4.69 1.02 2.38 0 0 Z " fill="#FBFBFB" transform="translate(657,602)"/>
<path d="M0 0 C1.32 1.32 2.64 2.64 4 4 C3.01 4.495 3.01 4.495 2 5 C2.33 6.32 2.66 7.64 3 9 C1.68 8.67 0.36 8.34 -1 8 C-0.67 5.36 -0.34 2.72 0 0 Z " fill="#E8E8E8" transform="translate(698,596)"/>
<path d="M0 0 C3 0 3 0 6 1 C6.6875 3.0625 6.6875 3.0625 7 5 C4.03 4.505 4.03 4.505 1 4 C0.67 2.68 0.34 1.36 0 0 Z " fill="#121212" transform="translate(633,567)"/>
<path d="M0 0 C0.66 0 1.32 0 2 0 C2.66 1.98 3.32 3.96 4 6 C2.35 5.67 0.7 5.34 -1 5 C-0.67 3.35 -0.34 1.7 0 0 Z " fill="#E8E8E8" transform="translate(677,558)"/>
<path d="M0 0 C0.99 0.33 1.98 0.66 3 1 C1.75 3.9375 1.75 3.9375 0 7 C-2.1875 7.875 -2.1875 7.875 -4 8 C-2.87548273 5.0280615 -1.77706209 2.66559313 0 0 Z " fill="#1B1B1B" transform="translate(333,529)"/>
<path d="M0 0 C0.33 0.99 0.66 1.98 1 3 C-0.65 4.65 -2.3 6.3 -4 8 C-4.66 7.67 -5.32 7.34 -6 7 C-5.34 5.68 -4.68 4.36 -4 3 C-3.01 3 -2.02 3 -1 3 C-0.67 2.01 -0.34 1.02 0 0 Z " fill="#FBFBFB" transform="translate(637,478)"/>
<path d="M0 0 C0.66 0 1.32 0 2 0 C0.52307692 5.66153846 0.52307692 5.66153846 -2.125 7.375 C-3.053125 7.684375 -3.053125 7.684375 -4 8 C-2.25 2.25 -2.25 2.25 0 0 Z " fill="#E9E9E9" transform="translate(366,470)"/>
<path d="M0 0 C2.49361571 1.20381448 4.68143083 2.45428722 7 4 C6.34 5.32 5.68 6.64 5 8 C2.27573689 5.64722731 1.1858237 3.37503669 0 0 Z " fill="#FAFAFA" transform="translate(551,399)"/>
<path d="M0 0 C1.65 1.65 3.3 3.3 5 5 C4.01 5.66 3.02 6.32 2 7 C0.4375 5.1875 0.4375 5.1875 -1 3 C-0.67 2.01 -0.34 1.02 0 0 Z " fill="#121212" transform="translate(595,393)"/>
<path d="M0 0 C1.65 0.33 3.3 0.66 5 1 C5.33 2.32 5.66 3.64 6 5 C5.01 5.33 4.02 5.66 3 6 C0.8125 4.5625 0.8125 4.5625 -1 3 C-0.67 2.01 -0.34 1.02 0 0 Z " fill="#020202" transform="translate(497,305)"/>
<path d="M0 0 C0.66 0 1.32 0 2 0 C2.66 1.32 3.32 2.64 4 4 C3.01 4 2.02 4 1 4 C0.67 4.66 0.34 5.32 0 6 C-0.99 6 -1.98 6 -3 6 C-1.125 1.125 -1.125 1.125 0 0 Z " fill="#161616" transform="translate(498,302)"/>
<path d="M0 0 C0.66 0 1.32 0 2 0 C4.25 7.5 4.25 7.5 2 12 C1.34 8.04 0.68 4.08 0 0 Z " fill="#FAFAFA" transform="translate(695,672)"/>
<path d="M0 0 C2.97 1.98 2.97 1.98 6 4 C5.67 4.99 5.34 5.98 5 7 C3.68 6.67 2.36 6.34 1 6 C0.67 4.02 0.34 2.04 0 0 Z " fill="#121212" transform="translate(555,671)"/>
<path d="M0 0 C0.66 0 1.32 0 2 0 C0.125 5.75 0.125 5.75 -1 8 C-1.99 7.67 -2.98 7.34 -4 7 C-1.125 1.125 -1.125 1.125 0 0 Z " fill="#F9F9F9" transform="translate(323,634)"/>
<path d="M0 0 C0.33 0.99 0.66 1.98 1 3 C-5.75 4.125 -5.75 4.125 -8 3 C-4.93882432 0.37613513 -4.26826873 0 0 0 Z " fill="#121212" transform="translate(672,628)"/>
<path d="M0 0 C0.99 0.33 1.98 0.66 3 1 C2.67 1.66 2.34 2.32 2 3 C1.34 3 0.68 3 0 3 C-0.12375 3.78375 -0.2475 4.5675 -0.375 5.375 C-1 8 -1 8 -3 10 C-3.33 9.34 -3.66 8.68 -4 8 C-3.22265625 6.0546875 -3.22265625 6.0546875 -2.0625 3.875 C-1.49208984 2.78832031 -1.49208984 2.78832031 -0.91015625 1.6796875 C-0.60980469 1.12539063 -0.30945313 0.57109375 0 0 Z " fill="#F9F9F9" transform="translate(296,605)"/>
<path d="M0 0 C0.66 0.33 1.32 0.66 2 1 C0.79618552 3.49361571 -0.45428722 5.68143083 -2 8 C-2.66 8 -3.32 8 -4 8 C-3.50168276 4.31245243 -2.89932357 2.39509338 0 0 Z " fill="#131313" transform="translate(604,511)"/>
<path d="M0 0 C0.99 0.99 1.98 1.98 3 3 C2.67 3.99 2.34 4.98 2 6 C1.67 5.34 1.34 4.68 1 4 C0.67 4.66 0.34 5.32 0 6 C-0.66 6 -1.32 6 -2 6 C-2.33 5.01 -2.66 4.02 -3 3 C-2.01 2.01 -1.02 1.02 0 0 Z " fill="#F9F9F9" transform="translate(653,512)"/>
<path d="M0 0 C-0.66 1.32 -1.32 2.64 -2 4 C-2.66 4 -3.32 4 -4 4 C-3.67 4.99 -3.34 5.98 -3 7 C-4.32 7.33 -5.64 7.66 -7 8 C-4.18918919 0 -4.18918919 0 0 0 Z " fill="#F9F9F9" transform="translate(651,511)"/>
<path d="M0 0 C-0.375 1.9375 -0.375 1.9375 -1 4 C-1.99 4.495 -1.99 4.495 -3 5 C-3 4.34 -3 3.68 -3 3 C-4.98 3.99 -4.98 3.99 -7 5 C-6.1875 3.0625 -6.1875 3.0625 -5 1 C-2 0 -2 0 0 0 Z " fill="#E7E7E7" transform="translate(619,496)"/>
<path d="M0 0 C0.66 0 1.32 0 2 0 C1.42655063 2.86724686 1.1385485 3.8614515 -1 6 C-1.99 6 -2.98 6 -4 6 C-4.33 5.01 -4.66 4.02 -5 3 C-4.360625 2.87625 -3.72125 2.7525 -3.0625 2.625 C-2.0415625 2.315625 -2.0415625 2.315625 -1 2 C-0.67 1.34 -0.34 0.68 0 0 Z " fill="#EAEAEA" transform="translate(654,462)"/>
<path d="M0 0 C1.65 0 3.3 0 5 0 C3.515 3.465 3.515 3.465 2 7 C0.5393715 4.35261084 0 3.10551666 0 0 Z " fill="#E3E3E3" transform="translate(413,456)"/>
<path d="M0 0 C0.66 0 1.32 0 2 0 C1.65120368 3.25543229 0.97866739 4.01873107 -1.5625 6.25 C-2.366875 6.8275 -3.17125 7.405 -4 8 C-3.67 6.35 -3.34 4.7 -3 3 C-2.34 3 -1.68 3 -1 3 C-0.67 2.01 -0.34 1.02 0 0 Z " fill="#FAFAFA" transform="translate(594,423)"/>
<path d="M0 0 C0.66 0 1.32 0 2 0 C2.66 1.98 3.32 3.96 4 6 C2.68 6.33 1.36 6.66 0 7 C-0.66 5.35 -1.32 3.7 -2 2 C-1.34 1.67 -0.68 1.34 0 1 C0 0.67 0 0.34 0 0 Z " fill="#E4E4E4" transform="translate(529,352)"/>
<path d="M0 0 C0.99 0 1.98 0 3 0 C4.8125 2.25 4.8125 2.25 6 5 C5.1875 7.3125 5.1875 7.3125 4 9 C3.731875 8.05125 3.46375 7.1025 3.1875 6.125 C2.25013412 2.74732727 2.25013412 2.74732727 -1 1 C-0.67 0.67 -0.34 0.34 0 0 Z " fill="#111111" transform="translate(513,332)"/>
<path d="M0 0 C3 1 3 1 4.5625 3.9375 C5.036875 4.948125 5.51125 5.95875 6 7 C6.66 7.66 7.32 8.32 8 9 C7.01 9.33 6.02 9.66 5 10 C3.35 6.7 1.7 3.4 0 0 Z " fill="#F9F9F9" transform="translate(510,321)"/>
<path d="M0 0 C0.33 0.99 0.66 1.98 1 3 C1.66 3 2.32 3 3 3 C3.33 4.32 3.66 5.64 4 7 C2.68 7.99 1.36 8.98 0 10 C-0.33 9.01 -0.66 8.02 -1 7 C-0.34 7 0.32 7 1 7 C0.67 4.69 0.34 2.38 0 0 Z " fill="#0E0E0E" transform="translate(547,297)"/>
<path d="M0 0 C4.29 0 8.58 0 13 0 C13 0.33 13 0.66 13 1 C12.09507812 1.09087891 12.09507812 1.09087891 11.171875 1.18359375 C9.97304688 1.30927734 9.97304688 1.30927734 8.75 1.4375 C7.96109375 1.51871094 7.1721875 1.59992187 6.359375 1.68359375 C4.17635361 1.97634993 2.1226818 2.42064419 0 3 C0 2.01 0 1.02 0 0 Z " fill="#2D2D2D" transform="translate(664,745)"/>
<path d="M0 0 C2.88437779 1.29299694 4.87219421 2.65941363 7 5 C6.34 5.66 5.68 6.32 5 7 C3.29115995 5.37660195 1.62553283 3.70680947 0 2 C0 1.34 0 0.68 0 0 Z " fill="#F6F6F6" transform="translate(279,722)"/>
<path d="M0 0 C2.97 0.495 2.97 0.495 6 1 C5.34 2.98 4.68 4.96 4 7 C0 2.25 0 2.25 0 0 Z " fill="#E7E7E7" transform="translate(315,641)"/>
<path d="M0 0 C0.66 0.33 1.32 0.66 2 1 C2 2.65 2 4.3 2 6 C0.68 6.33 -0.64 6.66 -2 7 C-2.33 6.01 -2.66 5.02 -3 4 C-2.67 3.34 -2.34 2.68 -2 2 C-1.34 2 -0.68 2 0 2 C0 1.34 0 0.68 0 0 Z " fill="#141414" transform="translate(726,635)"/>
<path d="M0 0 C0.33 0.99 0.66 1.98 1 3 C-0.8125 4.5625 -0.8125 4.5625 -3 6 C-3.99 5.67 -4.98 5.34 -6 5 C-3.9927092 1.9890638 -3.16115776 1.36983503 0 0 Z " fill="#F8F8F8" transform="translate(432,634)"/>
<path d="M0 0 C0.433125 0.9590625 0.433125 0.9590625 0.875 1.9375 C1.82823451 4.15206079 1.82823451 4.15206079 4 5 C2.35 5.66 0.7 6.32 -1 7 C-1.625 4.625 -1.625 4.625 -2 2 C-1.34 1.34 -0.68 0.68 0 0 Z " fill="#0F0F0F" transform="translate(434,624)"/>
<path d="M0 0 C0.66 0.33 1.32 0.66 2 1 C0.68 3.31 -0.64 5.62 -2 8 C-2.99 7.34 -3.98 6.68 -5 6 C-3.35 4.02 -1.7 2.04 0 0 Z " fill="#111111" transform="translate(292,610)"/>
<path d="M0 0 C1.65 0.99 3.3 1.98 5 3 C4.67 4.32 4.34 5.64 4 7 C3.34 7 2.68 7 2 7 C0.5393715 4.35261084 0 3.10551666 0 0 Z " fill="#E5E5E5" transform="translate(627,545)"/>
<path d="M0 0 C0.33 0.66 0.66 1.32 1 2 C1.66 2 2.32 2 3 2 C2.67 3.32 2.34 4.64 2 6 C0.68 6 -0.64 6 -2 6 C-1.34 4.02 -0.68 2.04 0 0 Z " fill="#E8E8E8" transform="translate(361,478)"/>
<path d="M0 0 C-0.1875 1.8125 -0.1875 1.8125 -1 4 C-3.5625 5.75 -3.5625 5.75 -6 7 C-5.37162381 3.35541809 -4.14650034 0 0 0 Z " fill="#1B1B1B" transform="translate(593,465)"/>
<path d="M0 0 C1.32 0 2.64 0 4 0 C4.66 1.32 5.32 2.64 6 4 C4.68 4 3.36 4 2 4 C1.67 4.99 1.34 5.98 1 7 C-0.21333397 4.57333205 0 2.66500278 0 0 Z " fill="#E7E7E7" transform="translate(443,394)"/>
<path d="M0 0 C0.66 0.33 1.32 0.66 2 1 C0.68 3.64 -0.64 6.28 -2 9 C-2.66 9 -3.32 9 -4 9 C-2.94124926 5.59687262 -1.99097846 2.98646769 0 0 Z " fill="#FAFAFA" transform="translate(462,283)"/>
<path d="M0 0 C3 1 3 1 4.1875 2.8125 C5 5 5 5 5 9 C4.34 9 3.68 9 3 9 C2 6 1 3 0 0 Z " fill="#FBFBFB" transform="translate(528,275)"/>
<path d="M0 0 C1.32 0.66 2.64 1.32 4 2 C3.67 3.32 3.34 4.64 3 6 C1.68 5.34 0.36 4.68 -1 4 C-0.67 2.68 -0.34 1.36 0 0 Z " fill="#E5E5E5" transform="translate(299,736)"/>
<path d="M0 0 C0.99 0 1.98 0 3 0 C1.92598892 2.91517292 1.22189824 4.77810176 -1 7 C-2 4 -2 4 -1.0625 1.8125 C-0.5365625 0.9153125 -0.5365625 0.9153125 0 0 Z " fill="#E9E9E9" transform="translate(726,712)"/>
<path d="M0 0 C0.33 0.99 0.66 1.98 1 3 C0.67 3.66 0.34 4.32 0 5 C-2.0625 5.625 -2.0625 5.625 -4 6 C-4.33 5.34 -4.66 4.68 -5 4 C-3 1 -3 1 0 0 Z " fill="#E7E7E7" transform="translate(599,697)"/>
<path d="M0 0 C2.62187494 1.04874998 3.79371361 1.64931313 5.25 4.125 C5.4975 4.74375 5.745 5.3625 6 6 C1.25 4.125 1.25 4.125 -1 3 C-0.67 2.01 -0.34 1.02 0 0 Z " fill="#FAFAFA" transform="translate(582,642)"/>
<path d="M0 0 C0 3 0 3 -1.3125 4.38671875 C-2.875 5.59114583 -4.4375 6.79557292 -6 8 C-6.33 7.01 -6.66 6.02 -7 5 C-4.69 3.35 -2.38 1.7 0 0 Z " fill="#F6F6F6" transform="translate(491,635)"/>
<path d="M0 0 C1.9375 0.3125 1.9375 0.3125 4 1 C4.33 1.99 4.66 2.98 5 4 C4.67 4.66 4.34 5.32 4 6 C3.01 5.67 2.02 5.34 1 5 C0.67 3.35 0.34 1.7 0 0 Z " fill="#101010" transform="translate(664,620)"/>
<path d="M0 0 C0.99 0.99 1.98 1.98 3 3 C2.34 4.32 1.68 5.64 1 7 C0.01 6.67 -0.98 6.34 -2 6 C-1.34 4.02 -0.68 2.04 0 0 Z " fill="#F9F9F9" transform="translate(316,567)"/>
<path d="M0 0 C1.32 0.66 2.64 1.32 4 2 C3.67 3.32 3.34 4.64 3 6 C1.35 5.67 -0.3 5.34 -2 5 C-2 4.01 -2 3.02 -2 2 C-1.34 2 -0.68 2 0 2 C0 1.34 0 0.68 0 0 Z " fill="#F8F8F8" transform="translate(404,472)"/>
<path d="M0 0 C0.66 0 1.32 0 2 0 C2.33 1.32 2.66 2.64 3 4 C1.68 4.99 0.36 5.98 -1 7 C-1.04254356 5.00045254 -1.04080783 2.99958364 -1 1 C-0.67 0.67 -0.34 0.34 0 0 Z " fill="#E8E8E8" transform="translate(682,434)"/>
<path d="M0 0 C2.2477975 2.05233685 3.0022242 3.00667261 4 6 C3.01 6.33 2.02 6.66 1 7 C-1 4 -1 4 -0.625 1.8125 C-0.41875 1.214375 -0.2125 0.61625 0 0 Z " fill="#121212" transform="translate(540,380)"/>
<path d="M0 0 C0.99 0.33 1.98 0.66 3 1 C4.1875 4.0625 4.1875 4.0625 5 7 C3.68 6.67 2.36 6.34 1 6 C0.67 4.02 0.34 2.04 0 0 Z " fill="#F9F9F9" transform="translate(568,350)"/>
<path d="M0 0 C0.99 0.33 1.98 0.66 3 1 C2.34 2.32 1.68 3.64 1 5 C0.34 4.67 -0.32 4.34 -1 4 C-1.33 4.66 -1.66 5.32 -2 6 C-2.33 5.01 -2.66 4.02 -3 3 C-2.01 2.01 -1.02 1.02 0 0 Z " fill="#FAFAFA" transform="translate(477,261)"/>
<path d="M0 0 C1.32 0.66 2.64 1.32 4 2 C2.02 3.32 0.04 4.64 -2 6 C-2.66 5.01 -3.32 4.02 -4 3 C-3.34 2.34 -2.68 1.68 -2 1 C-1.67 1.33 -1.34 1.66 -1 2 C-0.67 1.34 -0.34 0.68 0 0 Z " fill="#121212" transform="translate(477,257)"/>
<path d="M0 0 C1.875 0.3125 1.875 0.3125 4 1 C4.66 1.99 5.32 2.98 6 4 C4.02 4 2.04 4 0 4 C0 2.68 0 1.36 0 0 Z " fill="#FAFAFA" transform="translate(660,740)"/>
<path d="M0 0 C1.65 0.33 3.3 0.66 5 1 C3.75 2.5625 3.75 2.5625 2 4 C-0.1875 3.6875 -0.1875 3.6875 -2 3 C-1.34 2.01 -0.68 1.02 0 0 Z " fill="#0E0E0E" transform="translate(642,738)"/>
<path d="M0 0 C0.99 1.32 1.98 2.64 3 4 C-0.13349732 5.04449911 -0.98968256 4.93423645 -4 4 C-3.67 3.01 -3.34 2.02 -3 1 C-3 1.66 -3 2.32 -3 3 C-2.01 2.01 -1.02 1.02 0 0 Z " fill="#111111" transform="translate(686,655)"/>
<path d="M0 0 C0.66 0.33 1.32 0.66 2 1 C1.34 2.65 0.68 4.3 0 6 C-0.99 6 -1.98 6 -3 6 C-1.125 1.125 -1.125 1.125 0 0 Z " fill="#F7F7F7" transform="translate(276,646)"/>
<path d="M0 0 C0.99 0.33 1.98 0.66 3 1 C3.33 2.65 3.66 4.3 4 6 C3.01 6 2.02 6 1 6 C0.34 4.35 -0.32 2.7 -1 1 C-0.67 0.67 -0.34 0.34 0 0 Z " fill="#F8F8F8" transform="translate(682,644)"/>
<path d="M0 0 C0.99 0.33 1.98 0.66 3 1 C3.6875 3.0625 3.6875 3.0625 4 5 C2.35 5.33 0.7 5.66 -1 6 C-1 3 -1 3 0 0 Z " fill="#E7E7E7" transform="translate(441,625)"/>
<path d="M0 0 C0.66 0.33 1.32 0.66 2 1 C2.33 1.99 2.66 2.98 3 4 C1.02 4.33 -0.96 4.66 -3 5 C-1.125 1.125 -1.125 1.125 0 0 Z " fill="#F9F9F9" transform="translate(461,609)"/>
<path d="M0 0 C0.66 0 1.32 0 2 0 C1.25 4.75 1.25 4.75 -1 7 C-1.66 6.34 -2.32 5.68 -3 5 C-1.125 1.125 -1.125 1.125 0 0 Z " fill="#F9F9F9" transform="translate(347,588)"/>
<path d="M0 0 C0.99 0.33 1.98 0.66 3 1 C1.68 2.65 0.36 4.3 -1 6 C-1.99 5.67 -2.98 5.34 -4 5 C-3.34 5 -2.68 5 -2 5 C-2 4.01 -2 3.02 -2 2 C-1.34 2 -0.68 2 0 2 C0 1.34 0 0.68 0 0 Z " fill="#FBFBFB" transform="translate(674,443)"/>
<path d="M0 0 C1.9375 0.8125 1.9375 0.8125 4 2 C4.33 2.99 4.66 3.98 5 5 C2.69 4.34 0.38 3.68 -2 3 C-1.34 2.67 -0.68 2.34 0 2 C0 1.34 0 0.68 0 0 Z " fill="#141414" transform="translate(555,411)"/>
<path d="M0 0 C0.66 0 1.32 0 2 0 C2.66 1.98 3.32 3.96 4 6 C1.525 5.01 1.525 5.01 -1 4 C-0.67 2.68 -0.34 1.36 0 0 Z " fill="#FAFAFA" transform="translate(577,366)"/>
<path d="M0 0 C0.99 0.33 1.98 0.66 3 1 C3.33 1.99 3.66 2.98 4 4 C2.02 4.99 2.02 4.99 0 6 C-0.38218767 4.34385343 -0.71395102 2.67542976 -1 1 C-0.67 0.67 -0.34 0.34 0 0 Z " fill="#141414" transform="translate(529,361)"/>
<path d="M0 0 C0.99 0.33 1.98 0.66 3 1 C4.1875 4.0625 4.1875 4.0625 5 7 C3.0625 6.3125 3.0625 6.3125 1 5 C0.25 2.375 0.25 2.375 0 0 Z " fill="#F8F8F8" transform="translate(548,313)"/>
<path d="M0 0 C0.66 0.33 1.32 0.66 2 1 C1.1875 3.9375 1.1875 3.9375 0 7 C-0.99 7.33 -1.98 7.66 -3 8 C-1.125 2.25 -1.125 2.25 0 0 Z " fill="#FAFAFA" transform="translate(456,294)"/>
<path d="M0 0 C2 3 2 3 2 5 C0.02 5.33 -1.96 5.66 -4 6 C-2.68 4.02 -1.36 2.04 0 0 Z " fill="#E6E6E6" transform="translate(473,265)"/>
</svg>
