<?xml version="1.0" encoding="UTF-8"?>
<svg version="1.1" xmlns="http://www.w3.org/2000/svg" width="670" height="194">
<path d="M0 0 C221.1 0 442.2 0 670 0 C670 64.02 670 128.04 670 194 C448.9 194 227.8 194 0 194 C0 129.98 0 65.96 0 0 Z " fill="#FEFEFE" transform="translate(0,0)"/>
<path d="M0 0 C1.11181641 0.00322266 2.22363281 0.00644531 3.36914062 0.00976562 C4.51962891 0.01814453 5.67011719 0.02652344 6.85546875 0.03515625 C8.02529297 0.03966797 9.19511719 0.04417969 10.40039062 0.04882812 C13.28127198 0.06058682 16.16212694 0.07852151 19.04296875 0.09765625 C19.04296875 5.04765625 19.04296875 9.99765625 19.04296875 15.09765625 C21.41613281 15.07445313 23.78929687 15.05125 26.234375 15.02734375 C28.55118272 15.01171407 30.86798441 14.99958825 33.18481445 14.98779297 C34.78607849 14.97778002 36.38732446 14.96416565 37.98852539 14.94677734 C40.29968751 14.9223206 42.61060637 14.91112596 44.921875 14.90234375 C45.98324425 14.88685989 45.98324425 14.88685989 47.0660553 14.87106323 C50.61949279 14.87027404 53.4395415 15.21571312 56.86303711 16.23486328 C57.91241455 16.51958496 58.96179199 16.80430664 60.04296875 17.09765625 C61.03296875 16.43765625 62.02296875 15.77765625 63.04296875 15.09765625 C66.00390625 14.796875 66.00390625 14.796875 69.41796875 14.78515625 C71.10019531 14.76001953 71.10019531 14.76001953 72.81640625 14.734375 C76.3680505 15.13425746 78.23384174 15.91675219 81.04296875 18.09765625 C81.53796875 19.58265625 81.53796875 19.58265625 82.04296875 21.09765625 C82.70296875 21.09765625 83.36296875 21.09765625 84.04296875 21.09765625 C84.44515625 20.16953125 84.44515625 20.16953125 84.85546875 19.22265625 C86.04296875 17.09765625 86.04296875 17.09765625 89.04296875 15.09765625 C91.9473114 14.85714722 91.9473114 14.85714722 95.53393555 14.87060547 C96.18786285 14.87031342 96.84179016 14.87002136 97.51553345 14.86972046 C99.67455364 14.87111255 101.83322768 14.88666768 103.9921875 14.90234375 C105.49005444 14.90607432 106.98792382 14.90892108 108.48579407 14.91091919 C112.42647042 14.91855222 116.36699913 14.9381978 120.30761719 14.96032715 C124.32940677 14.98079272 128.35122022 14.98992243 132.37304688 15 C140.26308855 15.02144407 148.15301028 15.05557596 156.04296875 15.09765625 C156.04296875 11.79765625 156.04296875 8.49765625 156.04296875 5.09765625 C162.64296875 5.09765625 169.24296875 5.09765625 176.04296875 5.09765625 C176.04296875 9.05765625 176.04296875 13.01765625 176.04296875 17.09765625 C178.35296875 17.09765625 180.66296875 17.09765625 183.04296875 17.09765625 C183.04296875 22.70765625 183.04296875 28.31765625 183.04296875 34.09765625 C180.73296875 34.09765625 178.42296875 34.09765625 176.04296875 34.09765625 C176.04296875 40.03765625 176.04296875 45.97765625 176.04296875 52.09765625 C178.35296875 52.09765625 180.66296875 52.09765625 183.04296875 52.09765625 C183.04296875 57.70765625 183.04296875 63.31765625 183.04296875 69.09765625 C179.97993297 69.17881618 176.9190606 69.23823034 173.85546875 69.28515625 C172.99115234 69.31029297 172.12683594 69.33542969 171.23632812 69.36132812 C166.3769811 69.41718269 162.88203893 69.43063431 159.04296875 66.09765625 C156.45634757 62.45757481 155.67546315 60.02549031 155.75 55.578125 C155.75966797 54.55654297 155.76933594 53.53496094 155.77929688 52.48242188 C155.80443359 51.42732422 155.82957031 50.37222656 155.85546875 49.28515625 C155.86900391 48.21072266 155.88253906 47.13628906 155.89648438 46.02929688 C155.93174298 43.3849017 155.98102509 40.74153877 156.04296875 38.09765625 C153.07296875 37.10765625 150.10296875 36.11765625 147.04296875 35.09765625 C146.71296875 46.31765625 146.38296875 57.53765625 146.04296875 69.09765625 C138.70327899 69.20260892 131.36631657 69.30275845 124.0265274 69.35640717 C120.60842181 69.38277705 117.19093929 69.41799353 113.77319336 69.47485352 C109.84887291 69.53973028 105.92480401 69.56386695 102 69.5859375 C100.77900101 69.61174393 99.55800201 69.63755035 98.30000305 69.66413879 C88.86444669 69.66726236 88.86444669 69.66726236 85.7331543 66.56713867 C85.17539307 65.75220947 84.61763184 64.93728027 84.04296875 64.09765625 C83.71296875 65.74765625 83.38296875 67.39765625 83.04296875 69.09765625 C76.44296875 69.09765625 69.84296875 69.09765625 63.04296875 69.09765625 C63.04296875 56.88765625 63.04296875 44.67765625 63.04296875 32.09765625 C62.38296875 32.09765625 61.72296875 32.09765625 61.04296875 32.09765625 C61.04296875 44.30765625 61.04296875 56.51765625 61.04296875 69.09765625 C54.44296875 69.09765625 47.84296875 69.09765625 41.04296875 69.09765625 C41.04296875 56.88765625 41.04296875 44.67765625 41.04296875 32.09765625 C40.38296875 32.09765625 39.72296875 32.09765625 39.04296875 32.09765625 C39.04296875 44.30765625 39.04296875 56.51765625 39.04296875 69.09765625 C32.44296875 69.09765625 25.84296875 69.09765625 19.04296875 69.09765625 C18.71296875 67.44765625 18.38296875 65.79765625 18.04296875 64.09765625 C17.30046875 64.73703125 16.55796875 65.37640625 15.79296875 66.03515625 C11.48140011 69.26883273 8.06353986 69.22039479 2.74609375 69.1953125 C0.93818359 69.19047852 0.93818359 69.19047852 -0.90625 69.18554688 C-2.16050781 69.17716797 -3.41476562 69.16878906 -4.70703125 69.16015625 C-5.97675781 69.15564453 -7.24648438 69.15113281 -8.5546875 69.14648438 C-11.6888222 69.13470191 -14.82293267 69.11676661 -17.95703125 69.09765625 C-17.95703125 62.82765625 -17.95703125 56.55765625 -17.95703125 50.09765625 C-12.67703125 50.09765625 -7.39703125 50.09765625 -1.95703125 50.09765625 C-1.95703125 48.11765625 -1.95703125 46.13765625 -1.95703125 44.09765625 C-3.75140625 44.25234375 -3.75140625 44.25234375 -5.58203125 44.41015625 C-8.95678553 44.42212346 -10.72374182 43.94151435 -13.33203125 41.78515625 C-19.04952125 35.93153554 -18.32351857 31.16229302 -18.33203125 23.34765625 C-18.36876953 21.59582031 -18.36876953 21.59582031 -18.40625 19.80859375 C-18.42930385 13.03076133 -18.16104064 8.53099691 -13.95703125 3.09765625 C-9.40475421 0.06280489 -5.37922147 -0.02758575 0 0 Z " fill="#05090C" transform="translate(397.95703125,69.90234375)"/>
<path d="M0 0 C3.00617269 3.00617269 2.59585316 5.82381598 3 10 C4.50240234 9.65775391 4.50240234 9.65775391 6.03515625 9.30859375 C7.37746857 9.01760297 8.7199244 8.72727362 10.0625 8.4375 C10.71927734 8.28603516 11.37605469 8.13457031 12.05273438 7.97851562 C17.15416182 6.89791769 22.18411516 6.45580509 26.9375 9.0625 C28.6525272 12.18990254 28.67212153 15.56690863 28 19 C26.30466814 22.1425757 25.2412143 22.91697689 21.8137207 24.09667969 C20.53070068 24.36899414 19.24768066 24.64130859 17.92578125 24.921875 C17.2419487 25.07158752 16.55811615 25.22130005 15.8535614 25.37554932 C13.67611595 25.84868325 11.49474142 26.29956268 9.3125 26.75 C7.83236875 27.06755249 6.35254604 27.38654675 4.87304688 27.70703125 C1.25212385 28.48809436 -2.37265081 29.24927386 -6 30 C-5.0637252 30.0154612 -5.0637252 30.0154612 -4.10853577 30.03123474 C2.36354552 30.13906533 8.83548093 30.25368147 15.30737305 30.37231445 C17.72563639 30.41573878 20.1439319 30.45740812 22.56225586 30.49731445 C26.02988396 30.55483603 29.49734903 30.61858187 32.96484375 30.68359375 C34.59763527 30.70866249 34.59763527 30.70866249 36.26341248 30.73423767 C37.76485558 30.7641555 37.76485558 30.7641555 39.29663086 30.79467773 C40.18265488 30.81022202 41.06867889 30.8257663 41.98155212 30.84178162 C44 31 44 31 45 32 C45.43780539 39.88882031 44.80862545 47.76959065 44.125 55.625 C43.48954049 63.30838636 42.92026876 70.98993931 42.4921875 78.6875 C42.42996506 79.79924088 42.42996506 79.79924088 42.3664856 80.93344116 C42.16499166 84.56284511 41.97096114 88.19249001 41.78564453 91.82275391 C41.41530458 98.8051382 40.90537735 105.76147713 40.125 112.7109375 C39.98320312 113.9901709 39.84140625 115.2694043 39.6953125 116.58740234 C38.81650358 120.90060147 37.4892695 123.64031271 34.23300171 126.61325073 C31.48944702 128.31706602 29.80753561 128.39143003 26.59228516 128.41992188 C25.51081207 128.43583374 24.42933899 128.45174561 23.31509399 128.46813965 C21.5697084 128.46844177 21.5697084 128.46844177 19.7890625 128.46875 C18.58816986 128.47636353 17.38727722 128.48397705 16.1499939 128.49182129 C13.6097827 128.50262657 11.06952707 128.50547368 8.52929688 128.50097656 C4.64637926 128.50000535 0.76544422 128.54160397 -3.1171875 128.5859375 C-5.58593338 128.59114528 -8.05468613 128.59383268 -10.5234375 128.59375 C-11.68297943 128.61014526 -12.84252136 128.62654053 -14.03720093 128.64343262 C-23.02810575 128.56651969 -23.02810575 128.56651969 -26.71728516 125.65039062 C-30.18599156 121.62298135 -30.24226332 118.19218904 -30.66430664 113.02514648 C-30.72297409 112.31900711 -30.78164154 111.61286774 -30.84208679 110.8853302 C-31.03524628 108.54754582 -31.22288105 106.20935634 -31.41015625 103.87109375 C-31.54303643 102.24022217 -31.67613186 100.60936811 -31.80943298 98.97853088 C-32.08839271 95.55481078 -32.36459984 92.1308823 -32.63891602 88.70678711 C-32.98890309 84.34110566 -33.34583293 79.9760256 -33.7049036 75.61108303 C-33.98149408 72.23876632 -34.25422444 68.86614557 -34.52584648 65.49342537 C-34.65581238 63.88555258 -34.78697011 62.27777564 -34.91938972 60.67010307 C-35.59576893 52.43332668 -36.16789431 44.27303043 -36 36 C-37.22976562 36.28875 -38.45953125 36.5775 -39.7265625 36.875 C-41.35929661 37.25034117 -42.99211354 37.62532218 -44.625 38 C-45.43324219 38.19078125 -46.24148437 38.3815625 -47.07421875 38.578125 C-51.43209789 39.57016253 -55.5037264 40.44691876 -60 40 C-63.32274404 37.54405875 -64.77618008 36.0743356 -65.625 32 C-64.77162228 27.90378692 -63.23232839 26.63076793 -60 24 C-57.27268279 23.02605773 -54.54895073 22.58897253 -51.6875 22.1875 C-50.94693359 22.06697266 -50.20636719 21.94644531 -49.44335938 21.82226562 C-47.63173435 21.53006804 -45.81616571 21.26250104 -44 21 C-44.16113281 20.41476563 -44.32226562 19.82953125 -44.48828125 19.2265625 C-45.20872683 16.09179928 -45.17790103 13.20221862 -45 10 C-42.18468609 7.18468609 -38.94802023 6.87723395 -35.17578125 6.0546875 C-34.39615524 5.87994904 -33.61652924 5.70521057 -32.8132782 5.525177 C-31.1605888 5.1568534 -29.50706029 4.79227813 -27.8527832 4.43115234 C-25.33742057 3.88045594 -22.82593746 3.31418228 -20.31445312 2.74609375 C-18.70593935 2.3896751 -17.09722125 2.03417712 -15.48828125 1.6796875 C-14.37070183 1.42661331 -14.37070183 1.42661331 -13.23054504 1.16842651 C-8.76137778 0.20598022 -4.59992397 -0.34186417 0 0 Z " fill="#37B4FD" transform="translate(113,32)"/>
<path d="M0 0 C6.6 0 13.2 0 20 0 C20 4.62 20 9.24 20 14 C21.06436279 13.97381592 22.12872559 13.94763184 23.2253418 13.9206543 C27.18541327 13.82995224 31.14539351 13.77267911 35.10620117 13.7253418 C36.81827245 13.70024286 38.53023704 13.66615571 40.24194336 13.62280273 C42.70713645 13.56194261 45.17090985 13.53374568 47.63671875 13.51171875 C48.77919319 13.47300911 48.77919319 13.47300911 49.94474792 13.43351746 C54.0095468 13.43138648 55.76334971 13.80769358 58.96020508 16.40551758 C62.42611942 20.81392831 62.1759289 24.33691616 62.203125 29.76953125 C62.20882507 30.64268478 62.21452515 31.51583832 62.22039795 32.41545105 C62.22985345 34.26564317 62.23638411 36.11585218 62.24023438 37.96606445 C62.24992565 40.79082844 62.28093755 43.61486044 62.3125 46.43945312 C62.31903152 48.23697485 62.32428141 50.03450177 62.328125 51.83203125 C62.3404718 52.67490189 62.3528186 53.51777252 62.36553955 54.38618469 C62.34780712 59.07763132 62.07017259 62.20164841 59 66 C55.28673943 68.09934766 52.02658407 68.24508376 47.8125 68.1875 C46.76707031 68.18105469 45.72164063 68.17460937 44.64453125 68.16796875 C42 68 42 68 40 67 C40 72.28 40 77.56 40 83 C33.4 83 26.8 83 20 83 C20 78.05 20 73.1 20 68 C18.32043213 68.0314209 18.32043213 68.0314209 16.60693359 68.06347656 C12.43616623 68.13610426 8.26545432 68.18188211 4.09423828 68.21972656 C2.29205919 68.23979033 0.48994479 68.26704813 -1.31201172 68.30175781 C-3.90869136 68.35050829 -6.50450729 68.37302082 -9.1015625 68.390625 C-10.30191635 68.42159271 -10.30191635 68.42159271 -11.52651978 68.45318604 C-16.82277773 68.45529054 -19.78845091 67.50038124 -24 64 C-25.48548227 61.70170668 -26.09373061 59.61811157 -27 57 C-27.391875 57.9075 -27.78375 58.815 -28.1875 59.75 C-30.64004214 64.14766177 -33.22707358 66.40902453 -38 68 C-41.43305568 68.25455755 -44.87098906 68.23130883 -48.3125 68.25 C-49.25029297 68.270625 -50.18808594 68.29125 -51.15429688 68.3125 C-56.48369693 68.34254595 -60.52477871 68.22270096 -65 65 C-69.6104797 59.68317353 -69.5355206 55.2613085 -69.390625 48.5703125 C-69.38496521 47.57998016 -69.37930542 46.58964783 -69.37347412 45.56930542 C-69.35116674 42.42070225 -69.30098002 39.27325651 -69.25 36.125 C-69.22992775 33.98439149 -69.21167825 31.84376506 -69.1953125 29.703125 C-69.15472975 24.46795041 -69.07642721 19.23526355 -69 14 C-55.14 14 -41.28 14 -27 14 C-26.67 10.7 -26.34 7.4 -26 4 C-19.4 4 -12.8 4 -6 4 C-6 7.96 -6 11.92 -6 16 C-4.02 16 -2.04 16 0 16 C0 10.72 0 5.44 0 0 Z " fill="#0A1013" transform="translate(297,71)"/>
<path d="M0 0 C3.00617269 3.00617269 2.59585316 5.82381598 3 10 C4.50240234 9.65775391 4.50240234 9.65775391 6.03515625 9.30859375 C7.37746857 9.01760297 8.7199244 8.72727362 10.0625 8.4375 C10.71927734 8.28603516 11.37605469 8.13457031 12.05273438 7.97851562 C17.15416182 6.89791769 22.18411516 6.45580509 26.9375 9.0625 C28.6525272 12.18990254 28.67212153 15.56690863 28 19 C26.30466814 22.1425757 25.2412143 22.91697689 21.8137207 24.09667969 C20.53070068 24.36899414 19.24768066 24.64130859 17.92578125 24.921875 C17.2419487 25.07158752 16.55811615 25.22130005 15.8535614 25.37554932 C13.67611595 25.84868325 11.49474142 26.29956268 9.3125 26.75 C7.83236875 27.06755249 6.35254604 27.38654675 4.87304688 27.70703125 C1.25212385 28.48809436 -2.37265081 29.24927386 -6 30 C-5.0637252 30.0154612 -5.0637252 30.0154612 -4.10853577 30.03123474 C2.36354552 30.13906533 8.83548093 30.25368147 15.30737305 30.37231445 C17.72563639 30.41573878 20.1439319 30.45740812 22.56225586 30.49731445 C26.02988396 30.55483603 29.49734903 30.61858187 32.96484375 30.68359375 C34.59763527 30.70866249 34.59763527 30.70866249 36.26341248 30.73423767 C37.76485558 30.7641555 37.76485558 30.7641555 39.29663086 30.79467773 C40.18265488 30.81022202 41.06867889 30.8257663 41.98155212 30.84178162 C44 31 44 31 45 32 C45.43780539 39.88882031 44.80862545 47.76959065 44.125 55.625 C43.48954049 63.30838636 42.92026876 70.98993931 42.4921875 78.6875 C42.42996506 79.79924088 42.42996506 79.79924088 42.3664856 80.93344116 C42.16499166 84.56284511 41.97096114 88.19249001 41.78564453 91.82275391 C41.41530458 98.8051382 40.90537735 105.76147713 40.125 112.7109375 C39.98320312 113.9901709 39.84140625 115.2694043 39.6953125 116.58740234 C38.81650358 120.90060147 37.4892695 123.64031271 34.23300171 126.61325073 C31.48944702 128.31706602 29.80753561 128.39143003 26.59228516 128.41992188 C25.51081207 128.43583374 24.42933899 128.45174561 23.31509399 128.46813965 C21.5697084 128.46844177 21.5697084 128.46844177 19.7890625 128.46875 C18.58816986 128.47636353 17.38727722 128.48397705 16.1499939 128.49182129 C13.6097827 128.50262657 11.06952707 128.50547368 8.52929688 128.50097656 C4.64637926 128.50000535 0.76544422 128.54160397 -3.1171875 128.5859375 C-5.58593338 128.59114528 -8.05468613 128.59383268 -10.5234375 128.59375 C-11.68297943 128.61014526 -12.84252136 128.62654053 -14.03720093 128.64343262 C-23.02810575 128.56651969 -23.02810575 128.56651969 -26.71728516 125.65039062 C-30.18599156 121.62298135 -30.24226332 118.19218904 -30.66430664 113.02514648 C-30.72297409 112.31900711 -30.78164154 111.61286774 -30.84208679 110.8853302 C-31.03524628 108.54754582 -31.22288105 106.20935634 -31.41015625 103.87109375 C-31.54303643 102.24022217 -31.67613186 100.60936811 -31.80943298 98.97853088 C-32.08839271 95.55481078 -32.36459984 92.1308823 -32.63891602 88.70678711 C-32.98890309 84.34110566 -33.34583293 79.9760256 -33.7049036 75.61108303 C-33.98149408 72.23876632 -34.25422444 68.86614557 -34.52584648 65.49342537 C-34.65581238 63.88555258 -34.78697011 62.27777564 -34.91938972 60.67010307 C-35.59576893 52.43332668 -36.16789431 44.27303043 -36 36 C-37.22976562 36.28875 -38.45953125 36.5775 -39.7265625 36.875 C-41.35929661 37.25034117 -42.99211354 37.62532218 -44.625 38 C-45.43324219 38.19078125 -46.24148437 38.3815625 -47.07421875 38.578125 C-51.43209789 39.57016253 -55.5037264 40.44691876 -60 40 C-63.32274404 37.54405875 -64.77618008 36.0743356 -65.625 32 C-64.77162228 27.90378692 -63.23232839 26.63076793 -60 24 C-57.27268279 23.02605773 -54.54895073 22.58897253 -51.6875 22.1875 C-50.94693359 22.06697266 -50.20636719 21.94644531 -49.44335938 21.82226562 C-47.63173435 21.53006804 -45.81616571 21.26250104 -44 21 C-44.16113281 20.41476563 -44.32226562 19.82953125 -44.48828125 19.2265625 C-45.20872683 16.09179928 -45.17790103 13.20221862 -45 10 C-42.18468609 7.18468609 -38.94802023 6.87723395 -35.17578125 6.0546875 C-34.39615524 5.87994904 -33.61652924 5.70521057 -32.8132782 5.525177 C-31.1605888 5.1568534 -29.50706029 4.79227813 -27.8527832 4.43115234 C-25.33742057 3.88045594 -22.82593746 3.31418228 -20.31445312 2.74609375 C-18.70593935 2.3896751 -17.09722125 2.03417712 -15.48828125 1.6796875 C-14.37070183 1.42661331 -14.37070183 1.42661331 -13.23054504 1.16842651 C-8.76137778 0.20598022 -4.59992397 -0.34186417 0 0 Z M-32 36 C-31.16476781 52.84540925 -31.16476781 52.84540925 -30.0625 69.66796875 C-29.97750244 70.83910721 -29.89250488 72.01024567 -29.80493164 73.21687317 C-29.62788522 75.64897521 -29.44974638 78.08099798 -29.27050781 80.51293945 C-28.99760752 84.21999931 -28.72904284 87.9273562 -28.4609375 91.63476562 C-28.28671238 94.0208519 -28.11224217 96.40692029 -27.9375 98.79296875 C-27.85830322 99.88683395 -27.77910645 100.98069916 -27.69750977 102.10771179 C-27.54661761 104.14353875 -27.38860243 106.17885516 -27.22216797 108.21347046 C-27.07869825 110.01293157 -26.95639486 111.81426325 -26.85986328 113.61685181 C-26.80427246 114.40756073 -26.74868164 115.19826965 -26.69140625 116.01293945 C-26.65345947 116.69169632 -26.6155127 117.37045319 -26.57641602 118.06977844 C-25.72248049 120.92931861 -24.33242849 122.18005231 -22 124 C-19.49807944 124.60027575 -19.49807944 124.60027575 -16.74414062 124.51757812 C-15.69625366 124.53018677 -14.6483667 124.54279541 -13.56872559 124.55578613 C-12.44260864 124.54768921 -11.3164917 124.53959229 -10.15625 124.53125 C-8.9950061 124.5350769 -7.83376221 124.53890381 -6.6373291 124.54284668 C-4.18285251 124.54556792 -1.72834702 124.53819205 0.72607422 124.52148438 C4.48600841 124.50007965 8.24403159 124.52128088 12.00390625 124.546875 C14.38802506 124.54423176 16.77214267 124.53910688 19.15625 124.53125 C20.84542542 124.54339539 20.84542542 124.54339539 22.56872559 124.55578613 C24.14055603 124.53687317 24.14055603 124.53687317 25.74414062 124.51757812 C27.12502869 124.51280457 27.12502869 124.51280457 28.53381348 124.50793457 C31.89271639 123.81613657 33.00256846 122.77640524 35 120 C35.80556723 116.69432326 35.80556723 116.69432326 36.00488281 112.91162109 C36.09354111 111.85219299 36.09354111 111.85219299 36.18399048 110.7713623 C36.37461143 108.43974141 36.53909793 106.1070678 36.703125 103.7734375 C36.83044675 102.14389592 36.9592746 100.51447138 37.08953857 98.88516235 C37.35910111 95.46796075 37.61690666 92.05015722 37.86523438 88.63134766 C38.18183011 84.27273795 38.51725643 79.9158681 38.86034012 75.55927086 C39.18887353 71.38111261 39.50931903 67.20234783 39.828125 63.0234375 C39.91869045 61.84340715 39.91869045 61.84340715 40.01108551 60.63953781 C40.18258475 58.38156813 40.34854873 56.12326093 40.51269531 53.86474609 C40.60721985 52.58441498 40.70174438 51.30408386 40.7991333 49.98495483 C41.03383602 45.3287339 41 40.66213243 41 36 C16.91 36 -7.18 36 -32 36 Z " fill="#3A4145" transform="translate(113,32)"/>
<path d="M0 0 C7.59 0 15.18 0 23 0 C22.34 1.98 21.68 3.96 21 6 C20.6904383 8.61345588 20.6904383 8.61345588 20.69140625 11.22265625 C20.66626953 12.17333984 20.64113281 13.12402344 20.61523438 14.10351562 C20.5800097 16.08001129 20.548775 18.05658199 20.52148438 20.03320312 C20.37603761 25.25864413 20.17499373 28.64422348 17 33 C17.6830333 35.11629529 17.6830333 35.11629529 19 37 C19.90073338 39.93248347 20.16748505 42.68024301 20.28125 45.73828125 C20.31863281 46.64126953 20.35601562 47.54425781 20.39453125 48.47460938 C20.44673828 49.87936523 20.44673828 49.87936523 20.5 51.3125 C20.56963129 53.16288697 20.64248328 55.01315589 20.71875 56.86328125 C20.74904297 57.68094971 20.77933594 58.49861816 20.81054688 59.34106445 C21.0410998 62.57682716 21.54123394 65.78863757 22 69 C15.07 69 8.14 69 1 69 C-2.375 62.25 -2.375 62.25 -2.29296875 58.4765625 C-2.28330078 57.68378906 -2.27363281 56.89101562 -2.26367188 56.07421875 C-2.23853516 55.26597656 -2.21339844 54.45773438 -2.1875 53.625 C-2.17396484 52.79355469 -2.16042969 51.96210937 -2.14648438 51.10546875 C-2.11139059 49.07002934 -2.05759228 47.03492709 -2 45 C-2.66 45 -3.32 45 -4 45 C-4 52.92 -4 60.84 -4 69 C-11.26 69 -18.52 69 -26 69 C-26 46.56 -26 24.12 -26 1 C-18.74 1 -11.48 1 -4 1 C-4 8.92 -4 16.84 -4 25 C-3.34 25 -2.68 25 -2 25 C-2.01047363 24.42032471 -2.02094727 23.84064941 -2.03173828 23.2434082 C-2.07348615 20.59981679 -2.09938538 17.95629495 -2.125 15.3125 C-2.15013672 13.94448242 -2.15013672 13.94448242 -2.17578125 12.54882812 C-2.18222656 11.66259766 -2.18867188 10.77636719 -2.1953125 9.86328125 C-2.20578613 9.05157471 -2.21625977 8.23986816 -2.22705078 7.40356445 C-2 5 -2 5 0 0 Z " fill="#36B2F9" transform="translate(207,70)"/>
<path d="M0 0 C4.95 0 9.9 0 15 0 C15.33 0.99 15.66 1.98 16 3 C16.36351562 2.51402344 16.72703125 2.02804688 17.1015625 1.52734375 C19.8323609 -0.66965661 21.91160601 -0.43353731 25.375 -0.4375 C26.49648438 -0.45683594 27.61796875 -0.47617188 28.7734375 -0.49609375 C32.57881226 0.08899414 34.237815 1.3878213 37 4 C37.5259375 3.3503125 38.051875 2.700625 38.59375 2.03125 C41.70707109 -0.59687819 43.47180459 -0.53695592 47.5 -0.5 C48.6240625 -0.5103125 49.748125 -0.520625 50.90625 -0.53125 C54 0 54 0 56.16894531 1.40722656 C58.99861921 5.4140448 58.49552869 9.23007236 58.390625 14.015625 C58.38496521 14.98659119 58.37930542 15.95755737 58.37347412 16.95794678 C58.35110311 20.05580169 58.30090473 23.15249533 58.25 26.25 C58.22993597 28.35154578 58.21168503 30.45310972 58.1953125 32.5546875 C58.1512358 37.7035717 58.08220258 42.85158903 58 48 C53.05 48 48.1 48 43 48 C42.67 36.12 42.34 24.24 42 12 C40.68 12 39.36 12 38 12 C37.67 23.88 37.34 35.76 37 48 C32.05 48 27.1 48 22 48 C21.67 36.45 21.34 24.9 21 13 C18.525 12.505 18.525 12.505 16 12 C15.67 23.88 15.34 35.76 15 48 C10.05 48 5.1 48 0 48 C0 32.16 0 16.32 0 0 Z " fill="#36B2FA" transform="translate(420,88)"/>
<path d="M0 0 C4.95 0 9.9 0 15 0 C15.33 0.66 15.66 1.32 16 2 C16.66 1.34 17.32 0.68 18 0 C21.1171875 -0.3359375 21.1171875 -0.3359375 24.875 -0.375 C26.10992187 -0.40335937 27.34484375 -0.43171875 28.6171875 -0.4609375 C32 0 32 0 34.17822266 1.46630859 C36.8671888 5.2060688 36.57454915 8.49861209 36.53125 13 C36.5350769 13.87269531 36.53890381 14.74539062 36.54284668 15.64453125 C36.5455649 17.48699092 36.53820994 19.32948924 36.52148438 21.171875 C36.50007248 23.99045934 36.52128801 26.80649485 36.546875 29.625 C36.54423171 31.41667229 36.53910669 33.20834299 36.53125 35 C36.53934692 35.84175781 36.54744385 36.68351562 36.55578613 37.55078125 C36.49450167 41.3790041 36.45818682 43.36881372 34.16235352 46.53149414 C31.17335531 48.56139413 29.02131165 48.4986572 25.4375 48.4375 C23.73400391 48.43556641 23.73400391 48.43556641 21.99609375 48.43359375 C19 48 19 48 16 45 C15.67 51.27 15.34 57.54 15 64 C10.05 64 5.1 64 0 64 C0 42.88 0 21.76 0 0 Z " fill="#36B2FA" transform="translate(320,88)"/>
<path d="M0 0 C4.95 0 9.9 0 15 0 C15 3.96 15 7.92 15 12 C17.31 12 19.62 12 22 12 C22 15.63 22 19.26 22 23 C19.69 23 17.38 23 15 23 C15.33 30.26 15.66 37.52 16 45 C17.98 45.66 19.96 46.32 22 47 C22 50.63 22 54.26 22 58 C19.26843041 58.16262928 16.54657878 58.28110686 13.8125 58.375 C13.04357422 58.42527344 12.27464844 58.47554687 11.48242188 58.52734375 C7.34530599 58.63387892 5.4531258 58.3129838 1.96875 55.90625 C-1.72139749 50.57787559 -0.50912882 43.30137089 -0.3125 37.125 C-0.28739222 35.75524892 -0.26458339 34.38545365 -0.24414062 33.015625 C-0.1853436 29.67595378 -0.10319834 26.33854569 0 23 C-1.32 23 -2.64 23 -4 23 C-4 23.99 -4 24.98 -4 26 C-7.3 25.01 -10.6 24.02 -14 23 C-14.33 34.55 -14.66 46.1 -15 58 C-19.95 58 -24.9 58 -30 58 C-30 42.16 -30 26.32 -30 10 C-25.05 10 -20.1 10 -15 10 C-14.67 10.99 -14.34 11.98 -14 13 C-13.484375 12.505 -12.96875 12.01 -12.4375 11.5 C-9.15183066 9.47804964 -6.79557779 9.72395798 -3 10 C-2.01 10.33 -1.02 10.66 0 11 C0 7.37 0 3.74 0 0 Z " fill="#36B2FA" transform="translate(556,78)"/>
<path d="M0 0 C1.85625 -0.01160156 1.85625 -0.01160156 3.75 -0.0234375 C7 0.375 7 0.375 8.9375 1.8984375 C9.288125 2.38570313 9.63875 2.87296875 10 3.375 C10.33 2.385 10.66 1.395 11 0.375 C15.95 0.375 20.9 0.375 26 0.375 C26 16.215 26 32.055 26 48.375 C21.05 48.375 16.1 48.375 11 48.375 C10.67 47.385 10.34 46.395 10 45.375 C9.4740625 46.10396484 9.4740625 46.10396484 8.9375 46.84765625 C6.04475154 49.12802853 3.63009985 48.80871865 0 48.8125 C-1.2375 48.83183594 -2.475 48.85117188 -3.75 48.87109375 C-7 48.375 -7 48.375 -8.67822266 46.92236328 C-10.68250841 43.05965225 -10.42850031 39.41202461 -10.3984375 35.12109375 C-10.40130768 34.22383072 -10.40417786 33.32656769 -10.40713501 32.40211487 C-10.4091737 30.5083859 -10.40365746 28.61463578 -10.39111328 26.72094727 C-10.37503793 23.81934693 -10.39097809 20.91913554 -10.41015625 18.01757812 C-10.40817415 16.17708026 -10.40433117 14.33658325 -10.3984375 12.49609375 C-10.40451019 11.62730087 -10.41058289 10.758508 -10.4168396 9.86338806 C-10.40265488 8.65181786 -10.40265488 8.65181786 -10.38818359 7.41577148 C-10.38579681 6.70613754 -10.38341003 5.9965036 -10.38095093 5.2653656 C-9.25851172 -0.30443439 -4.84083933 -0.03025525 0 0 Z " fill="#37B4FD" transform="translate(494,87.625)"/>
<path d="M0 0 C1.11503906 0.00966797 2.23007812 0.01933594 3.37890625 0.02929688 C5.11720703 0.06700195 5.11720703 0.06700195 6.890625 0.10546875 C8.65212891 0.12577148 8.65212891 0.12577148 10.44921875 0.14648438 C13.34655017 0.18181769 16.24364565 0.23562385 19.140625 0.29296875 C19.140625 4.91296875 19.140625 9.53296875 19.140625 14.29296875 C14.190625 14.29296875 9.240625 14.29296875 4.140625 14.29296875 C4.140625 17.92296875 4.140625 21.55296875 4.140625 25.29296875 C5.5225 25.23109375 6.904375 25.16921875 8.328125 25.10546875 C12.44346537 25.09899809 14.8324412 25.68652091 18.140625 28.29296875 C22.22124508 32.37358883 21.35729392 38.16833568 21.390625 43.60546875 C21.41125 44.43498047 21.431875 45.26449219 21.453125 46.11914062 C21.48779958 51.61072685 20.92955906 55.50934054 18.140625 60.29296875 C14.35534097 63.13971487 11.65218636 63.65520857 6.96484375 63.5859375 C5.22944336 63.57143555 5.22944336 63.57143555 3.45898438 63.55664062 C1.66170898 63.51893555 1.66170898 63.51893555 -0.171875 63.48046875 C-1.9981543 63.46016602 -1.9981543 63.46016602 -3.86132812 63.43945312 C-6.86086693 63.40416443 -9.86017766 63.35035949 -12.859375 63.29296875 C-12.859375 58.67296875 -12.859375 54.05296875 -12.859375 49.29296875 C-7.579375 49.29296875 -2.299375 49.29296875 3.140625 49.29296875 C3.140625 45.66296875 3.140625 42.03296875 3.140625 38.29296875 C1.573125 38.37546875 0.005625 38.45796875 -1.609375 38.54296875 C-6.49923661 38.53606217 -6.49923661 38.53606217 -9.359375 36.60546875 C-12.6511846 31.53059561 -13.21650079 27.01363712 -13.171875 21.04296875 C-13.16768555 20.28806152 -13.16349609 19.5331543 -13.15917969 18.75537109 C-13.05044701 13.38467111 -12.79574133 7.96047643 -9.859375 3.29296875 C-6.60790863 0.25873397 -4.38878065 -0.06717521 0 0 Z " fill="#36B1F8" transform="translate(394.859375,72.70703125)"/>
<path d="M0 0 C4.95 0 9.9 0 15 0 C15.06058594 2.43117188 15.12117187 4.86234375 15.18359375 7.3671875 C15.24536947 9.71699173 15.30876282 12.06674712 15.37231445 14.41650391 C15.41567538 16.05187653 15.45734961 17.68729477 15.49731445 19.32275391 C15.55498912 21.67103841 15.61869129 24.01909304 15.68359375 26.3671875 C15.70030624 27.10057343 15.71701874 27.83395935 15.73423767 28.58956909 C15.78637962 32.42202308 15.78637962 32.42202308 17 36 C18.98 35.505 18.98 35.505 21 35 C21.33 23.45 21.66 11.9 22 0 C26.95 0 31.9 0 37 0 C37.07427668 5.6050325 37.12866208 11.20977711 37.16479492 16.81518555 C37.17986128 18.72116081 37.20031824 20.62710152 37.22631836 22.53295898 C37.26279642 25.27596576 37.27974792 28.01851328 37.29296875 30.76171875 C37.30845261 31.61086349 37.32393646 32.46000824 37.33988953 33.33488464 C37.34122536 38.05380233 37.11440309 41.20502102 34 45 C29.50307945 49.31744519 24.45894044 48.47766151 18.5625 48.4375 C17.52544922 48.45748047 16.48839844 48.47746094 15.41992188 48.49804688 C10.93422846 48.49516589 7.87324242 48.48342172 3.90234375 46.28515625 C-0.34264855 41.18593552 -0.27441017 36.31950998 -0.1953125 29.98046875 C-0.1924826 29.12189774 -0.18965271 28.26332672 -0.18673706 27.3787384 C-0.1755807 24.64818125 -0.15048459 21.9179573 -0.125 19.1875 C-0.11496432 17.33138496 -0.1058395 15.47526476 -0.09765625 13.61914062 C-0.07565626 9.07929954 -0.04115781 4.53970619 0 0 Z " fill="#37B3FA" transform="translate(230,88)"/>
<path d="M0 0 C1.11181641 0.00322266 2.22363281 0.00644531 3.36914062 0.00976562 C4.51962891 0.01814453 5.67011719 0.02652344 6.85546875 0.03515625 C8.02529297 0.03966797 9.19511719 0.04417969 10.40039062 0.04882812 C13.28127198 0.06058682 16.16212694 0.07852151 19.04296875 0.09765625 C19.04296875 5.04765625 19.04296875 9.99765625 19.04296875 15.09765625 C21.41613281 15.07445313 23.78929687 15.05125 26.234375 15.02734375 C28.55118272 15.01171407 30.86798441 14.99958825 33.18481445 14.98779297 C34.78607849 14.97778002 36.38732446 14.96416565 37.98852539 14.94677734 C40.29968751 14.9223206 42.61060637 14.91112596 44.921875 14.90234375 C45.98324425 14.88685989 45.98324425 14.88685989 47.0660553 14.87106323 C50.61949279 14.87027404 53.4395415 15.21571312 56.86303711 16.23486328 C57.91241455 16.51958496 58.96179199 16.80430664 60.04296875 17.09765625 C61.03296875 16.43765625 62.02296875 15.77765625 63.04296875 15.09765625 C66.00390625 14.796875 66.00390625 14.796875 69.41796875 14.78515625 C71.10019531 14.76001953 71.10019531 14.76001953 72.81640625 14.734375 C76.3680505 15.13425746 78.23384174 15.91675219 81.04296875 18.09765625 C81.53796875 19.58265625 81.53796875 19.58265625 82.04296875 21.09765625 C82.70296875 21.09765625 83.36296875 21.09765625 84.04296875 21.09765625 C83.54796875 22.58265625 83.54796875 22.58265625 83.04296875 24.09765625 C82.38296875 24.09765625 81.72296875 24.09765625 81.04296875 24.09765625 C81.04296875 37.95765625 81.04296875 51.81765625 81.04296875 66.09765625 C80.71296875 66.09765625 80.38296875 66.09765625 80.04296875 66.09765625 C80.02838623 64.78047607 80.01380371 63.4632959 79.9987793 62.10620117 C79.94086162 57.22506387 79.86362839 52.34439107 79.78051758 47.46362305 C79.74723747 45.35009289 79.71921522 43.23647319 79.6965332 41.12280273 C79.66304403 38.08668819 79.61073111 35.0513965 79.5546875 32.015625 C79.54829758 31.06866257 79.54190765 30.12170013 79.5353241 29.14604187 C79.51552994 28.26535538 79.49573578 27.38466888 79.4753418 26.47729492 C79.46423874 25.70230148 79.45313568 24.92730804 79.44169617 24.12882996 C78.93719461 21.55882788 78.11434059 20.66348534 76.04296875 19.09765625 C73.01777743 18.58218765 73.01777743 18.58218765 69.66796875 18.66015625 C67.98574219 18.63115234 67.98574219 18.63115234 66.26953125 18.6015625 C62.46415649 19.18665039 60.80515375 20.48547755 58.04296875 23.09765625 C57.2540625 22.12119141 57.2540625 22.12119141 56.44921875 21.125 C53.32785452 18.4951493 51.57577801 18.59078453 47.54296875 18.66015625 C46.41890625 18.66144531 45.29484375 18.66273437 44.13671875 18.6640625 C40.84514012 19.12538223 39.45121564 19.87238891 37.04296875 22.09765625 C37.04296875 20.77765625 37.04296875 19.45765625 37.04296875 18.09765625 C32.09296875 18.09765625 27.14296875 18.09765625 22.04296875 18.09765625 C22.04296875 33.93765625 22.04296875 49.77765625 22.04296875 66.09765625 C26.99296875 66.09765625 31.94296875 66.09765625 37.04296875 66.09765625 C37.04296875 54.21765625 37.04296875 42.33765625 37.04296875 30.09765625 C38.03296875 30.09765625 39.02296875 30.09765625 40.04296875 30.09765625 C40.53796875 31.08765625 40.53796875 31.08765625 41.04296875 32.09765625 C40.38296875 32.09765625 39.72296875 32.09765625 39.04296875 32.09765625 C39.04296875 44.30765625 39.04296875 56.51765625 39.04296875 69.09765625 C32.44296875 69.09765625 25.84296875 69.09765625 19.04296875 69.09765625 C18.71296875 67.44765625 18.38296875 65.79765625 18.04296875 64.09765625 C17.30046875 64.73703125 16.55796875 65.37640625 15.79296875 66.03515625 C11.48140011 69.26883273 8.06353986 69.22039479 2.74609375 69.1953125 C0.93818359 69.19047852 0.93818359 69.19047852 -0.90625 69.18554688 C-2.16050781 69.17716797 -3.41476562 69.16878906 -4.70703125 69.16015625 C-5.97675781 69.15564453 -7.24648438 69.15113281 -8.5546875 69.14648438 C-11.6888222 69.13470191 -14.82293267 69.11676661 -17.95703125 69.09765625 C-17.95703125 62.82765625 -17.95703125 56.55765625 -17.95703125 50.09765625 C-12.67703125 50.09765625 -7.39703125 50.09765625 -1.95703125 50.09765625 C-1.95703125 48.11765625 -1.95703125 46.13765625 -1.95703125 44.09765625 C-3.75140625 44.25234375 -3.75140625 44.25234375 -5.58203125 44.41015625 C-8.95678553 44.42212346 -10.72374182 43.94151435 -13.33203125 41.78515625 C-19.04952125 35.93153554 -18.32351857 31.16229302 -18.33203125 23.34765625 C-18.36876953 21.59582031 -18.36876953 21.59582031 -18.40625 19.80859375 C-18.42930385 13.03076133 -18.16104064 8.53099691 -13.95703125 3.09765625 C-9.40475421 0.06280489 -5.37922147 -0.02758575 0 0 Z M-13.95703125 7.09765625 C-15.86054656 12.5890095 -16.34382033 17.81314897 -16.33203125 23.59765625 C-16.33187012 24.34015625 -16.33170898 25.08265625 -16.33154297 25.84765625 C-16.21279784 31.52742345 -15.29842016 35.38040132 -11.95703125 40.09765625 C-9.43227663 41.36003356 -7.64502659 41.19622029 -4.83203125 41.16015625 C-3.22328125 41.13953125 -1.61453125 41.11890625 0.04296875 41.09765625 C0.04296875 44.72765625 0.04296875 48.35765625 0.04296875 52.09765625 C-5.23703125 52.09765625 -10.51703125 52.09765625 -15.95703125 52.09765625 C-15.95703125 56.71765625 -15.95703125 61.33765625 -15.95703125 66.09765625 C-11.72748072 66.17859024 -7.49947914 66.23813195 -3.26953125 66.28515625 C-1.47225586 66.32286133 -1.47225586 66.32286133 0.36132812 66.36132812 C2.09672852 66.37583008 2.09672852 66.37583008 3.8671875 66.390625 C5.4617981 66.41419067 5.4617981 66.41419067 7.08862305 66.43823242 C10.49538953 66.04550131 12.31580551 65.14916016 15.04296875 63.09765625 C18.24951131 57.57877036 18.47823659 52.75836988 18.35546875 46.47265625 C18.35869141 45.63992187 18.36191406 44.8071875 18.36523438 43.94921875 C18.31976156 38.75705017 18.0256371 34.51133946 14.60546875 30.34765625 C11.6868671 28.01277493 8.93215788 27.98332018 5.35546875 28.03515625 C3.93234375 28.05578125 2.50921875 28.07640625 1.04296875 28.09765625 C1.04296875 24.46765625 1.04296875 20.83765625 1.04296875 17.09765625 C5.99296875 17.09765625 10.94296875 17.09765625 16.04296875 17.09765625 C16.04296875 12.47765625 16.04296875 7.85765625 16.04296875 3.09765625 C11.97975794 2.98970379 7.91941596 2.91035075 3.85546875 2.84765625 C2.70498047 2.81414062 1.55449219 2.780625 0.36914062 2.74609375 C-0.74267578 2.73320313 -1.85449219 2.7203125 -3 2.70703125 C-4.5317688 2.67561035 -4.5317688 2.67561035 -6.09448242 2.64355469 C-9.74629551 3.2228615 -11.36322235 4.50413412 -13.95703125 7.09765625 Z " fill="#101518" transform="translate(397.95703125,69.90234375)"/>
<path d="M0 0 C4.95 0 9.9 0 15 0 C15 3.63 15 7.26 15 11 C17.31 11 19.62 11 22 11 C22 14.96 22 18.92 22 23 C19.69 23 17.38 23 15 23 C15 30.59 15 38.18 15 46 C17.31 46 19.62 46 22 46 C22 49.96 22 53.92 22 58 C19.26916098 58.13548815 16.54508193 58.23429855 13.8125 58.3125 C13.04357422 58.35439453 12.27464844 58.39628906 11.48242188 58.43945312 C10.35610352 58.46362305 10.35610352 58.46362305 9.20703125 58.48828125 C8.17799683 58.52755737 8.17799683 58.52755737 7.12817383 58.56762695 C3.65685012 57.64175479 2.17458509 55.79081118 0 53 C-0.56762695 49.6784668 -0.56762695 49.6784668 -0.48828125 45.94921875 C-0.48120651 45.29041214 -0.47413177 44.63160553 -0.46684265 43.95283508 C-0.43900979 41.86319966 -0.37630819 39.77631524 -0.3125 37.6875 C-0.28740205 36.26501286 -0.26459148 34.84248341 -0.24414062 33.41992188 C-0.18922446 29.94573139 -0.10303685 26.4731345 0 23 C-1.32 23 -2.64 23 -4 23 C-4 19.37 -4 15.74 -4 12 C-2.68 12 -1.36 12 0 12 C0 8.04 0 4.08 0 0 Z " fill="#36B0F7" transform="translate(274,78)"/>
<path d="M0 0 C7.59 0 15.18 0 23 0 C22.34 1.98 21.68 3.96 21 6 C20.6904383 8.61345588 20.6904383 8.61345588 20.69140625 11.22265625 C20.66626953 12.17333984 20.64113281 13.12402344 20.61523438 14.10351562 C20.5800097 16.08001129 20.548775 18.05658199 20.52148438 20.03320312 C20.37603761 25.25864413 20.17499373 28.64422348 17 33 C17.6830333 35.11629529 17.6830333 35.11629529 19 37 C19.90073338 39.93248347 20.16748505 42.68024301 20.28125 45.73828125 C20.31863281 46.64126953 20.35601562 47.54425781 20.39453125 48.47460938 C20.44673828 49.87936523 20.44673828 49.87936523 20.5 51.3125 C20.56963129 53.16288697 20.64248328 55.01315589 20.71875 56.86328125 C20.74904297 57.68094971 20.77933594 58.49861816 20.81054688 59.34106445 C21.0410998 62.57682716 21.54123394 65.78863757 22 69 C15.07 69 8.14 69 1 69 C-2.375 62.25 -2.375 62.25 -2.29296875 58.4765625 C-2.28330078 57.68378906 -2.27363281 56.89101562 -2.26367188 56.07421875 C-2.23853516 55.26597656 -2.21339844 54.45773438 -2.1875 53.625 C-2.17396484 52.79355469 -2.16042969 51.96210937 -2.14648438 51.10546875 C-2.11139059 49.07002934 -2.05759228 47.03492709 -2 45 C-2.66 45 -3.32 45 -4 45 C-4 52.92 -4 60.84 -4 69 C-11.26 69 -18.52 69 -26 69 C-26 46.56 -26 24.12 -26 1 C-18.74 1 -11.48 1 -4 1 C-4 8.92 -4 16.84 -4 25 C-3.34 25 -2.68 25 -2 25 C-2.01047363 24.42032471 -2.02094727 23.84064941 -2.03173828 23.2434082 C-2.07348615 20.59981679 -2.09938538 17.95629495 -2.125 15.3125 C-2.15013672 13.94448242 -2.15013672 13.94448242 -2.17578125 12.54882812 C-2.18222656 11.66259766 -2.18867188 10.77636719 -2.1953125 9.86328125 C-2.20578613 9.05157471 -2.21625977 8.23986816 -2.22705078 7.40356445 C-2 5 -2 5 0 0 Z M-23 3 C-23 23.79 -23 44.58 -23 66 C-17.39 66 -11.78 66 -6 66 C-6 58.08 -6 50.16 -6 42 C-4.35 42.33 -2.7 42.66 -1 43 C0.10982356 45.21964712 0.17829168 46.56483257 0.28125 49.02734375 C0.31863281 49.81947266 0.35601562 50.61160156 0.39453125 51.42773438 C0.44673828 52.67006836 0.44673828 52.67006836 0.5 53.9375 C0.56900029 55.57178464 0.64176558 57.20591575 0.71875 58.83984375 C0.74904297 59.56550537 0.77933594 60.29116699 0.81054688 61.03881836 C0.94683305 63.21307065 0.94683305 63.21307065 2 66 C7.61 66 13.22 66 19 66 C18.67 64.35 18.34 62.7 18 61 C17.91421377 59.28144911 17.86893513 57.56050788 17.859375 55.83984375 C17.84003906 54.88142578 17.82070312 53.92300781 17.80078125 52.93554688 C17.76686438 50.93314697 17.74869295 48.93041982 17.74609375 46.92773438 C17.69594722 41.09134309 17.69594722 41.09134309 14.640625 36.31640625 C12.04428255 34.77692292 12.04428255 34.77692292 9 35 C9 34.34 9 33.68 9 33 C9.7425 32.95875 10.485 32.9175 11.25 32.875 C14.33788561 31.89249094 15.44632374 30.76394347 17.15722656 28.05029297 C18.96515208 23.65198519 18.68646116 18.81532134 18.75 14.125 C18.77964844 13.05507812 18.80929688 11.98515625 18.83984375 10.8828125 C18.910228 8.25513392 18.96307994 5.62832636 19 3 C16.18743719 2.97315688 13.37512759 2.95323812 10.5625 2.9375 C9.76005859 2.92912109 8.95761719 2.92074219 8.13085938 2.91210938 C6.08704779 2.9034857 4.04316098 2.9477185 2 3 C0.42920421 4.57079579 0.81801277 6.18756581 0.75390625 8.3671875 C0.72103516 9.25277344 0.68816406 10.13835937 0.65429688 11.05078125 C0.59335663 12.92566621 0.53603377 14.80067243 0.48242188 16.67578125 C0.44826172 17.56394531 0.41410156 18.45210937 0.37890625 19.3671875 C0.3538501 20.18300293 0.32879395 20.99881836 0.30297852 21.83935547 C0 24 0 24 -2 27 C-3.32 27.33 -4.64 27.66 -6 28 C-6 19.75 -6 11.5 -6 3 C-11.61 3 -17.22 3 -23 3 Z " fill="#05090C" transform="translate(207,70)"/>
<path d="M0 0 C4.95 0 9.9 0 15 0 C15 15.84 15 31.68 15 48 C10.05 48 5.1 48 0 48 C0 32.16 0 16.32 0 0 Z " fill="#37B3FB" transform="translate(299,88)"/>
<path d="M0 0 C2 2 2 2 2.3125 4.5 C2.209375 5.325 2.10625 6.15 2 7 C-1.42712166 9.28474778 -4.58691862 9.94931156 -8.54296875 10.76953125 C-9.2954892 10.9308252 -10.04800964 11.09211914 -10.82333374 11.25830078 C-13.2767891 11.78253343 -15.73208023 12.29755453 -18.1875 12.8125 C-19.87568651 13.17157019 -21.56375585 13.53119173 -23.25170898 13.89135742 C-33.64693748 16.10437298 -44.05127547 18.27523685 -54.46362305 20.40625 C-59.34998809 21.41387419 -64.17776818 22.52498198 -69 23.8125 C-73.47883706 24.99183875 -77.37954485 25.26656472 -82 25 C-82.625 22.125 -82.625 22.125 -83 19 C-80.2650293 16.2650293 -77.29212609 16.01095132 -73.625 15.265625 C-72.87657837 15.10706528 -72.12815674 14.94850555 -71.35705566 14.78514099 C-69.74530574 14.44439418 -68.13284716 14.10698587 -66.51977539 13.77255249 C-62.29131856 12.89565265 -58.06793655 11.99485796 -53.84375 11.09765625 C-52.57899841 10.83013298 -52.57899841 10.83013298 -51.28869629 10.5572052 C-44.00680609 9.01331549 -36.74952114 7.3774517 -29.5 5.6875 C-28.02080078 5.34283691 -28.02080078 5.34283691 -26.51171875 4.99121094 C-25.56941406 4.77110352 -24.62710938 4.55099609 -23.65625 4.32421875 C-22.74488281 4.11200684 -21.83351562 3.89979492 -20.89453125 3.68115234 C-18.78571159 3.18489671 -16.67923417 2.67865632 -14.57421875 2.16650391 C-13.42566406 1.89112793 -12.27710937 1.61575195 -11.09375 1.33203125 C-9.52657227 0.95075073 -9.52657227 0.95075073 -7.92773438 0.56176758 C-5.16003562 0.0307073 -2.80460902 -0.26026235 0 0 Z " fill="#37B1F8" transform="translate(135,43)"/>
<path d="M0 0 C6.6 0 13.2 0 20 0 C19.67 10.89 19.34 21.78 19 33 C18.67 33 18.34 33 18 33 C18 23.1 18 13.2 18 3 C12.72 3 7.44 3 2 3 C2.069042 8.44478172 2.15708887 13.88880758 2.26245117 19.33300781 C2.29562296 21.18350819 2.32367887 23.03410786 2.34643555 24.88476562 C2.3801245 27.55121003 2.4324466 30.2167509 2.48828125 32.8828125 C2.49467117 33.70492218 2.5010611 34.52703186 2.50764465 35.37405396 C2.6321748 40.28347504 3.25551466 43.76407851 6 48 C10.54796094 51.03197396 15.02408022 50.36842639 20.375 50.375 C21.4165625 50.39949219 22.458125 50.42398438 23.53125 50.44921875 C29.63044776 50.48747028 29.63044776 50.48747028 35.1640625 48.1640625 C37.68539039 45.19211431 38.12208191 42.75714775 38.20532227 38.98754883 C38.22526749 38.18694534 38.24521271 37.38634186 38.26576233 36.56147766 C38.28247482 35.70201035 38.29918732 34.84254303 38.31640625 33.95703125 C38.33718735 33.0734343 38.35796844 32.18983734 38.37937927 31.27946472 C38.44475754 28.45722215 38.50370528 25.63488665 38.5625 22.8125 C38.60569637 20.89907894 38.64931102 18.98566727 38.69335938 17.07226562 C38.80042695 12.38160563 38.90172752 7.69085217 39 3 C39.33 3 39.66 3 40 3 C40 7.29 40 11.58 40 16 C41.98 16 43.96 16 46 16 C46 25.57 46 35.14 46 45 C44.68 44.34 43.36 43.68 42 43 C41.608125 43.9075 41.21625 44.815 40.8125 45.75 C38.35995786 50.14766177 35.77292642 52.40902453 31 54 C27.56694432 54.25455755 24.12901094 54.23130883 20.6875 54.25 C19.74970703 54.270625 18.81191406 54.29125 17.84570312 54.3125 C12.51630307 54.34254595 8.47522129 54.22270096 4 51 C-0.6104797 45.68317353 -0.5355206 41.2613085 -0.390625 34.5703125 C-0.38496521 33.57998016 -0.37930542 32.58964783 -0.37347412 31.56930542 C-0.35116674 28.42070225 -0.30098002 25.27325651 -0.25 22.125 C-0.22992775 19.98439149 -0.21167825 17.84376506 -0.1953125 15.703125 C-0.15472975 10.46795041 -0.07642721 5.23526355 0 0 Z " fill="#07161F" transform="translate(228,85)"/>
<path d="M0 0 C1.29873047 0.00644531 2.59746094 0.01289062 3.93554688 0.01953125 C5.30729432 0.0362419 6.67903911 0.05317179 8.05078125 0.0703125 C9.43423843 0.08034576 10.81770252 0.08947101 12.20117188 0.09765625 C15.58861582 0.12126213 18.9759702 0.15713367 22.36328125 0.1953125 C22.36328125 6.1353125 22.36328125 12.0753125 22.36328125 18.1953125 C17.74328125 18.5253125 13.12328125 18.8553125 8.36328125 19.1953125 C8.03328125 20.8453125 7.70328125 22.4953125 7.36328125 24.1953125 C7.03328125 24.1953125 6.70328125 24.1953125 6.36328125 24.1953125 C6.36328125 21.5553125 6.36328125 18.9153125 6.36328125 16.1953125 C10.98328125 16.1953125 15.60328125 16.1953125 20.36328125 16.1953125 C20.36328125 11.5753125 20.36328125 6.9553125 20.36328125 2.1953125 C16.2789004 2.28215051 12.19675081 2.38902881 8.11328125 2.5078125 C6.95441406 2.53037109 5.79554688 2.55292969 4.6015625 2.57617188 C2.92900391 2.6293457 2.92900391 2.6293457 1.22265625 2.68359375 C-0.31696777 2.72286987 -0.31696777 2.72286987 -1.88769531 2.76293945 C-5.02016059 3.25562116 -6.39694725 3.97440021 -8.63671875 6.1953125 C-10.50821727 11.75039541 -10.97559719 16.92817697 -10.94921875 22.7578125 C-10.96533203 23.47388672 -10.98144531 24.18996094 -10.99804688 24.92773438 C-11.00271132 30.05395437 -10.04081357 33.65034491 -7.63671875 38.1953125 C-5.20284122 39.41225126 -3.21833029 39.51491146 -0.51171875 39.7578125 C1.09703125 39.9021875 2.70578125 40.0465625 4.36328125 40.1953125 C4.36328125 43.8253125 4.36328125 47.4553125 4.36328125 51.1953125 C-0.91671875 51.1953125 -6.19671875 51.1953125 -11.63671875 51.1953125 C-11.63671875 55.8153125 -11.63671875 60.4353125 -11.63671875 65.1953125 C-2.06671875 64.8653125 7.50328125 64.5353125 17.36328125 64.1953125 C17.03328125 65.1853125 16.70328125 66.1753125 16.36328125 67.1953125 C13.06593479 68.29442799 10.6336938 68.3092581 7.1640625 68.29296875 C5.35131836 68.28813477 5.35131836 68.28813477 3.50195312 68.28320312 C1.60799805 68.27063477 1.60799805 68.27063477 -0.32421875 68.2578125 C-2.23557617 68.25104492 -2.23557617 68.25104492 -4.18554688 68.24414062 C-7.33595745 68.23234133 -10.48634394 68.21440568 -13.63671875 68.1953125 C-13.63671875 61.9253125 -13.63671875 55.6553125 -13.63671875 49.1953125 C-8.35671875 49.1953125 -3.07671875 49.1953125 2.36328125 49.1953125 C2.36328125 47.2153125 2.36328125 45.2353125 2.36328125 43.1953125 C0.56890625 43.35 0.56890625 43.35 -1.26171875 43.5078125 C-4.63647303 43.51977971 -6.40342932 43.0391706 -9.01171875 40.8828125 C-14.72920875 35.02919179 -14.00320607 30.25994927 -14.01171875 22.4453125 C-14.04845703 20.69347656 -14.04845703 20.69347656 -14.0859375 18.90625 C-14.10899135 12.12841758 -13.84072814 7.62865316 -9.63671875 2.1953125 C-6.00365817 -0.22672788 -4.31852852 -0.03771641 0 0 Z " fill="#0A0B0C" transform="translate(393.63671875,70.8046875)"/>
<path d="M0 0 C6.6 0 13.2 0 20 0 C20 3.96 20 7.92 20 12 C22.31 12 24.62 12 27 12 C27 17.61 27 23.22 27 29 C24.69 29 22.38 29 20 29 C20 34.94 20 40.88 20 47 C22.31 47 24.62 47 27 47 C27 52.61 27 58.22 27 64 C23.93696422 64.08115993 20.87609185 64.14057409 17.8125 64.1875 C16.94818359 64.21263672 16.08386719 64.23777344 15.19335938 64.26367188 C10.27420614 64.32021387 6.99695391 64.2053242 3 61 C2.34 60.34 1.68 59.68 1 59 C1 58.01 1 57.02 1 56 C3.46800047 57.15173355 5.04783565 58.04783565 7 60 C9.89967757 60.30675232 12.71783178 60.51173371 15.625 60.625 C16.42679688 60.66367188 17.22859375 60.70234375 18.0546875 60.7421875 C20.03607556 60.83653931 22.01800645 60.91936215 24 61 C24 57.37 24 53.74 24 50 C22.35 50 20.7 50 19 50 C17 48 17 48 16.77294922 45.75341797 C16.78342285 44.84221191 16.79389648 43.93100586 16.8046875 42.9921875 C16.81113281 42.00605469 16.81757812 41.01992187 16.82421875 40.00390625 C16.84097656 38.97136719 16.85773437 37.93882813 16.875 36.875 C16.88402344 35.83472656 16.89304687 34.79445312 16.90234375 33.72265625 C16.92596253 31.14820908 16.95889851 28.57421788 17 26 C19.31 26 21.62 26 24 26 C24 22.37 24 18.74 24 15 C21.69 15 19.38 15 17 15 C17 11.04 17 7.08 17 3 C12.05 3 7.1 3 2 3 C2 6.63 2 10.26 2 14 C-0.97 13.67 -3.94 13.34 -7 13 C-7.33 12.01 -7.66 11.02 -8 10 C-5.36 10 -2.72 10 0 10 C0 6.7 0 3.4 0 0 Z " fill="#10191E" transform="translate(554,75)"/>
<path d="M0 0 C7.59 0 15.18 0 23 0 C22.34 1.98 21.68 3.96 21 6 C20.6904383 8.61345588 20.6904383 8.61345588 20.69140625 11.22265625 C20.66626953 12.17333984 20.64113281 13.12402344 20.61523438 14.10351562 C20.5800097 16.08001129 20.548775 18.05658199 20.52148438 20.03320312 C20.37603761 25.25864413 20.17499373 28.64422348 17 33 C17.6830333 35.11629529 17.6830333 35.11629529 19 37 C19.90073338 39.93248347 20.16748505 42.68024301 20.28125 45.73828125 C20.31863281 46.64126953 20.35601562 47.54425781 20.39453125 48.47460938 C20.44673828 49.87936523 20.44673828 49.87936523 20.5 51.3125 C20.56963129 53.16288697 20.64248328 55.01315589 20.71875 56.86328125 C20.74904297 57.68094971 20.77933594 58.49861816 20.81054688 59.34106445 C21.0410998 62.57682716 21.54123394 65.78863757 22 69 C15.07 69 8.14 69 1 69 C0.01 67.02 -0.98 65.04 -2 63 C-1.67 62.34 -1.34 61.68 -1 61 C-0.7677354 58.28737884 -0.58063765 55.59226874 -0.4375 52.875 C-0.39431641 52.12089844 -0.35113281 51.36679688 -0.30664062 50.58984375 C-0.2005168 48.72678112 -0.09974999 46.86341476 0 45 C0.33 45 0.66 45 1 45 C1.33 51.93 1.66 58.86 2 66 C7.61 66 13.22 66 19 66 C18.34 64.35 17.68 62.7 17 61 C16.74462891 58.46044922 16.74462891 58.46044922 16.7265625 55.8046875 C16.7059375 54.84175781 16.6853125 53.87882812 16.6640625 52.88671875 C16.63792063 50.87118085 16.61975173 48.85552447 16.609375 46.83984375 C16.58617187 45.87949219 16.56296875 44.91914062 16.5390625 43.9296875 C16.53084473 43.05554199 16.52262695 42.18139648 16.51416016 41.28076172 C16.1900151 38.85461804 16.1900151 38.85461804 14.15380859 37.25439453 C11.93865896 35.86611588 11.93865896 35.86611588 9 35 C9 34.34 9 33.68 9 33 C9.94875 32.5875 10.8975 32.175 11.875 31.75 C15.19288666 29.89198347 15.72010002 29.3957146 17 26 C17.3459521 23.62064819 17.3459521 23.62064819 17.37890625 21.0859375 C17.41306641 20.16039063 17.44722656 19.23484375 17.48242188 18.28125 C17.50884766 17.3221875 17.53527344 16.363125 17.5625 15.375 C17.62231481 13.46601673 17.68592845 11.55714752 17.75390625 9.6484375 C17.77783447 8.80458496 17.8017627 7.96073242 17.82641602 7.09130859 C18 5 18 5 19 3 C10.585 3.495 10.585 3.495 2 4 C1.67 10.6 1.34 17.2 1 24 C0.67 24 0.34 24 0 24 C-0.06058594 22.96359375 -0.12117187 21.9271875 -0.18359375 20.859375 C-0.26803371 19.48957127 -0.35267997 18.11978025 -0.4375 16.75 C-0.47681641 16.06808594 -0.51613281 15.38617188 -0.55664062 14.68359375 C-0.79790331 10.7047791 -0.79790331 10.7047791 -1.66015625 6.828125 C-2 5 -2 5 0 0 Z " fill="#081218" transform="translate(207,70)"/>
<path d="M0 0 C3.77774959 0.08168107 6.4093518 0.91202535 9.2421875 3.61328125 C11.45998113 7.26373718 11.13701155 11.30740968 10.3125 15.375 C8.42734777 17.95137471 7.11915143 18.97167428 4.3125 20.375 C-0.84184412 20.88198467 -0.84184412 20.88198467 -3.6875 20.375 C-6.625 17.9375 -6.625 17.9375 -8.6875 15.375 C-9.0175 15.045 -9.3475 14.715 -9.6875 14.375 C-9.98072866 11.44271337 -10.18754247 9.23008117 -9.6875 6.375 C-7.25 3.4375 -7.25 3.4375 -4.6875 1.375 C-3.6875 0.375 -3.6875 0.375 0 0 Z " fill="#36B2F9" transform="translate(617.6875,122.625)"/>
<path d="M0 0 C0.495 3.96 0.495 3.96 1 8 C-3.06057526 8.96660878 -7.12378148 9.92169997 -11.1875 10.875 C-12.31865234 11.14441406 -13.44980469 11.41382813 -14.61523438 11.69140625 C-22.36961499 13.50297095 -30.11289468 14.90418311 -38 16 C-38.33 13.36 -38.66 10.72 -39 8 C-32.03829047 5.85633459 -24.9309885 4.39856794 -17.8125 2.875 C-16.54212891 2.59785156 -15.27175781 2.32070313 -13.96289062 2.03515625 C-12.74408203 1.77347656 -11.52527344 1.51179688 -10.26953125 1.2421875 C-9.16198486 1.0035498 -8.05443848 0.76491211 -6.91333008 0.51904297 C-4 0 -4 0 0 0 Z " fill="#F8F8F8" transform="translate(111,36)"/>
<path d="M0 0 C1.05550049 0.00453186 1.05550049 0.00453186 2.13232422 0.00915527 C4.74982462 0.02479939 7.36711521 0.06668351 9.984375 0.10546875 C18.770625 0.19828125 18.770625 0.19828125 27.734375 0.29296875 C27.734375 17.78296875 27.734375 35.27296875 27.734375 53.29296875 C34.334375 53.29296875 40.934375 53.29296875 47.734375 53.29296875 C47.734375 42.07296875 47.734375 30.85296875 47.734375 19.29296875 C48.064375 19.29296875 48.394375 19.29296875 48.734375 19.29296875 C48.734375 30.84296875 48.734375 42.39296875 48.734375 54.29296875 C34.214375 54.29296875 19.694375 54.29296875 4.734375 54.29296875 C4.734375 53.96296875 4.734375 53.63296875 4.734375 53.29296875 C11.994375 53.29296875 19.254375 53.29296875 26.734375 53.29296875 C26.074375 52.63296875 25.414375 51.97296875 24.734375 51.29296875 C24.49386597 49.23019409 24.49386597 49.23019409 24.50732422 46.65966797 C24.50747528 45.69882294 24.50762634 44.73797791 24.50778198 43.74801636 C24.51810455 42.70839752 24.52842712 41.66877869 24.5390625 40.59765625 C24.5418924 39.53507599 24.54472229 38.47249573 24.54763794 37.37771606 C24.55885861 33.97435376 24.58396663 30.57125189 24.609375 27.16796875 C24.61940236 24.86458713 24.62852863 22.56120139 24.63671875 20.2578125 C24.65880412 14.6027638 24.69334685 8.94791047 24.734375 3.29296875 C19.784375 3.29296875 14.834375 3.29296875 9.734375 3.29296875 C9.404375 4.61296875 9.074375 5.93296875 8.734375 7.29296875 C8.38246094 6.80441406 8.03054688 6.31585938 7.66796875 5.8125 C4.78374723 3.54590976 2.40992063 3.93118271 -1.203125 3.98046875 C-2.42902344 3.98433594 -3.65492188 3.98820312 -4.91796875 3.9921875 C-7.98379958 4.26764721 -9.69886732 4.67829161 -12.265625 6.29296875 C-12.265625 3.29296875 -12.265625 3.29296875 -10.78222656 1.6237793 C-7.23610961 -0.25145193 -3.91040421 -0.0792987 0 0 Z " fill="#272B2D" transform="translate(495.265625,84.70703125)"/>
<path d="M0 0 C0.99 0.33 1.98 0.66 3 1 C3.11604967 19.69649514 3.01131077 38.3230267 2 57 C0.68 57 -0.64 57 -2 57 C-2.05057624 49.20380412 -2.08568114 41.4076503 -2.10986328 33.61132812 C-2.11994089 30.95734069 -2.13360313 28.3033644 -2.15087891 25.64941406 C-2.17504992 21.84176893 -2.18646535 18.03427016 -2.1953125 14.2265625 C-2.20563507 13.03382721 -2.21595764 11.84109192 -2.22659302 10.61221313 C-2.22674408 9.51122284 -2.22689514 8.41023254 -2.22705078 7.27587891 C-2.23371262 5.8169371 -2.23371262 5.8169371 -2.24050903 4.32852173 C-2 2 -2 2 0 0 Z " fill="#33444E" transform="translate(125,83)"/>
<path d="M0 0 C1.32 0.66 2.64 1.32 4 2 C4 20.15 4 38.3 4 57 C2.68 57 1.36 57 0 57 C-0.7479554 43.18669594 -1.10789142 29.39401088 -1.125 15.5625 C-1.12749756 14.84392822 -1.12999512 14.12535645 -1.13256836 13.38500977 C-1.13841617 11.34131696 -1.13580766 9.29760523 -1.1328125 7.25390625 C-1.13168457 6.07127197 -1.13055664 4.8886377 -1.12939453 3.67016602 C-1 1 -1 1 0 0 Z " fill="#33444E" transform="translate(108,83)"/>
<path d="M0 0 C1.32 0.66 2.64 1.32 4 2 C4.76786112 20.68393981 5.14704105 39.29864024 5 58 C3.68 57.34 2.36 56.68 1 56 C0.71225919 49.77454397 0.42753569 43.54895965 0.14550781 37.32324219 C0.04931546 35.20894724 -0.04767591 33.09468847 -0.14550781 30.98046875 C-0.28665055 27.92717698 -0.42484099 24.87376308 -0.5625 21.8203125 C-0.60624756 20.88760529 -0.64999512 19.95489807 -0.69506836 18.993927 C-1.28319848 5.77209323 -1.28319848 5.77209323 -1 1 C-0.67 0.67 -0.34 0.34 0 0 Z " fill="#333F46" transform="translate(94,83)"/>
<path d="M0 0 C0.99 0.33 1.98 0.66 3 1 C2.43510267 19.33827458 1.81329814 37.6707181 1 56 C-0.32 56.66 -1.64 57.32 -3 58 C-3.1937698 42.48798238 -3.33527901 27.03651152 -2.0625 11.5625 C-1.97564941 10.50426025 -1.88879883 9.44602051 -1.79931641 8.35571289 C-1.14579075 1.14579075 -1.14579075 1.14579075 0 0 Z " fill="#333E44" transform="translate(139,83)"/>
<path d="M0 0 C6.6 0 13.2 0 20 0 C19.67 10.89 19.34 21.78 19 33 C18.67 33 18.34 33 18 33 C18 23.1 18 13.2 18 3 C12.72 3 7.44 3 2 3 C2 16.53 2 30.06 2 44 C1.01 44.495 1.01 44.495 0 45 C0 30.15 0 15.3 0 0 Z " fill="#010405" transform="translate(228,85)"/>
<path d="M0 0 C2.625 0.375 2.625 0.375 5 1 C5.02893932 4.62498334 5.04677792 8.24993713 5.0625 11.875 C5.07087891 12.90753906 5.07925781 13.94007812 5.08789062 15.00390625 C5.09111328 15.99003906 5.09433594 16.97617188 5.09765625 17.9921875 C5.10289307 18.90339355 5.10812988 19.81459961 5.11352539 20.75341797 C5 23 5 23 4 25 C-0.875 24.125 -0.875 24.125 -2 23 C-2.25098924 19.52791193 -2.18522096 16.0425938 -2.1875 12.5625 C-2.19974609 11.58216797 -2.21199219 10.60183594 -2.22460938 9.59179688 C-2.22750977 8.18704102 -2.22750977 8.18704102 -2.23046875 6.75390625 C-2.23457764 5.89095947 -2.23868652 5.0280127 -2.24291992 4.13891602 C-2 2 -2 2 0 0 Z " fill="#252E33" transform="translate(500,99)"/>
<path d="M0 0 C4.95 0 9.9 0 15 0 C15 3.63 15 7.26 15 11 C10.05 11 5.1 11 0 11 C0 7.37 0 3.74 0 0 Z " fill="#33A8EB" transform="translate(299,73)"/>
<path d="M0 0 C1.67542976 0.28604898 3.34385343 0.61781233 5 1 C5.0289337 4.79165074 5.04677601 8.58327327 5.0625 12.375 C5.07087891 13.45523438 5.07925781 14.53546875 5.08789062 15.6484375 C5.09111328 16.6796875 5.09433594 17.7109375 5.09765625 18.7734375 C5.10289307 19.72653809 5.10812988 20.67963867 5.11352539 21.66162109 C5 24 5 24 4 26 C0.125 25.125 0.125 25.125 -1 24 C-1.09932153 22.30441274 -1.13080007 20.60474253 -1.1328125 18.90625 C-1.13474609 17.36130859 -1.13474609 17.36130859 -1.13671875 15.78515625 C-1.13285156 14.70105469 -1.12898438 13.61695312 -1.125 12.5 C-1.12886719 11.41589844 -1.13273437 10.33179687 -1.13671875 9.21484375 C-1.13542969 8.18488281 -1.13414062 7.15492187 -1.1328125 6.09375 C-1.13168457 5.14177734 -1.13055664 4.18980469 -1.12939453 3.20898438 C-1 1 -1 1 0 0 Z " fill="#26292A" transform="translate(336,99)"/>
<path d="M0 0 C1 3 1 3 -0.125 5.9375 C-2.70275452 10.14783238 -5.31359099 12.43786366 -10 14 C-13.43305568 14.25455755 -16.87098906 14.23130883 -20.3125 14.25 C-21.71918945 14.2809375 -21.71918945 14.2809375 -23.15429688 14.3125 C-29.52113533 14.34839479 -34.16414195 13.74437876 -38.9375 9.125 C-40.31623864 6.36752271 -39.88308373 4.89009221 -39 2 C-38.01 3.485 -38.01 3.485 -37 5 C-34.84080025 8.00429637 -33.23448903 9.7684118 -29.51953125 10.46533203 C-26.49795076 10.63794961 -23.52551553 10.6323777 -20.5 10.5625 C-18.95119141 10.57893555 -18.95119141 10.57893555 -17.37109375 10.59570312 C-12.81012666 10.55156473 -9.85387247 10.51275257 -5.890625 8.1328125 C-3.89986276 5.88703527 -2.42535203 3.63690125 -1 1 C-0.67 0.67 -0.34 0.34 0 0 Z " fill="#191C1D" transform="translate(269,125)"/>
<path d="M0 0 C3.77774959 0.08168107 6.4093518 0.91202535 9.2421875 3.61328125 C11.45998113 7.26373718 11.13701155 11.30740968 10.3125 15.375 C8.42734777 17.95137471 7.11915143 18.97167428 4.3125 20.375 C-0.84184412 20.88198467 -0.84184412 20.88198467 -3.6875 20.375 C-6.625 17.9375 -6.625 17.9375 -8.6875 15.375 C-9.0175 15.045 -9.3475 14.715 -9.6875 14.375 C-9.98072866 11.44271337 -10.18754247 9.23008117 -9.6875 6.375 C-7.25 3.4375 -7.25 3.4375 -4.6875 1.375 C-3.6875 0.375 -3.6875 0.375 0 0 Z M-5.625 4.5 C-7.86493666 7.21267184 -7.86493666 7.21267184 -8.3125 10.375 C-7.46368008 14.4493356 -6.01024404 15.91905875 -2.6875 18.375 C1.09704468 19.08460213 2.77964413 18.65301176 6.1875 16.875 C8.77293632 13.83331021 9.00260681 12.17492767 8.7265625 8.28125 C8.38051535 6.17054214 8.38051535 6.17054214 6.75 3.875 C2.15614172 1.04801029 -1.31469643 1.38190805 -5.625 4.5 Z " fill="#0B161D" transform="translate(617.6875,122.625)"/>
<path d="M0 0 C8.91 0 17.82 0 27 0 C27 5.94 27 11.88 27 18 C22.38 18.33 17.76 18.66 13 19 C12.67 20.65 12.34 22.3 12 24 C11.67 24 11.34 24 11 24 C11 21.36 11 18.72 11 16 C15.62 16 20.24 16 25 16 C25 11.38 25 6.76 25 2 C16.42 2 7.84 2 -1 2 C-0.67 1.34 -0.34 0.68 0 0 Z " fill="#000000" transform="translate(389,71)"/>
<path d="M0 0 C0.33 0 0.66 0 1 0 C1 16.17 1 32.34 1 49 C-8.57 49.33 -18.14 49.66 -28 50 C-28 49.34 -28 48.68 -28 48 C-24.7 47.34 -21.4 46.68 -18 46 C-17.67 45.01 -17.34 44.02 -17 43 C-16.67 44.32 -16.34 45.64 -16 47 C-10.72 47 -5.44 47 0 47 C0 31.49 0 15.98 0 0 Z " fill="#000202" transform="translate(521,89)"/>
<path d="M0 0 C7.59 0 15.18 0 23 0 C22.34 1.98 21.68 3.96 21 6 C20.01 6.33 19.02 6.66 18 7 C18.33 5.68 18.66 4.36 19 3 C10.585 3.495 10.585 3.495 2 4 C1.67 10.6 1.34 17.2 1 24 C0.67 24 0.34 24 0 24 C-0.06058594 22.96359375 -0.12117187 21.9271875 -0.18359375 20.859375 C-0.26803371 19.48957127 -0.35267997 18.11978025 -0.4375 16.75 C-0.47681641 16.06808594 -0.51613281 15.38617188 -0.55664062 14.68359375 C-0.79790331 10.7047791 -0.79790331 10.7047791 -1.66015625 6.828125 C-2 5 -2 5 0 0 Z " fill="#242B2F" transform="translate(207,70)"/>
<path d="M0 0 C1.98 0 3.96 0 6 0 C6 5.94 6 11.88 6 18 C4.02 18 2.04 18 0 18 C0 12.06 0 6.12 0 0 Z " fill="#D8D8D8" transform="translate(291,104)"/>
<path d="M0 0 C0.33 0 0.66 0 1 0 C1.33 6.93 1.66 13.86 2 21 C7.61 21 13.22 21 19 21 C19.66 19.68 20.32 18.36 21 17 C21.33 19.31 21.66 21.62 22 24 C15.07 24 8.14 24 1 24 C0.01 22.02 -0.98 20.04 -2 18 C-1.67 17.34 -1.34 16.68 -1 16 C-0.7677354 13.28737884 -0.58063765 10.59226874 -0.4375 7.875 C-0.39431641 7.12089844 -0.35113281 6.36679688 -0.30664062 5.58984375 C-0.2005168 3.72678112 -0.09974999 1.86341476 0 0 Z " fill="#171F23" transform="translate(207,115)"/>
<path d="M0 0 C4.95 0 9.9 0 15 0 C15 3.96 15 7.92 15 12 C14.195625 11.21625 13.39125 10.4325 12.5625 9.625 C8.78671199 6.42870943 4.79762984 5.71431378 0 5 C0 3.35 0 1.7 0 0 Z " fill="#F6F6F6" transform="translate(402,90)"/>
<path d="M0 0 C5.49152542 0.61016949 5.49152542 0.61016949 7.875 2.4375 C9 4 9 4 9 6 C9.66 6 10.32 6 11 6 C10.67 6.99 10.34 7.98 10 9 C9.34 9 8.68 9 8 9 C8 22.86 8 36.72 8 51 C7.67 51 7.34 51 7 51 C6.98541748 49.68281982 6.97083496 48.36563965 6.95581055 47.00854492 C6.89789287 42.12740762 6.82065964 37.24673482 6.73754883 32.3659668 C6.70426872 30.25243664 6.67624647 28.13881694 6.65356445 26.02514648 C6.62007528 22.98903194 6.56776236 19.95374025 6.51171875 16.91796875 C6.50532883 15.97100632 6.4989389 15.02404388 6.49235535 14.04838562 C6.47256119 13.16769913 6.45276703 12.28701263 6.43237305 11.37963867 C6.42126999 10.60464523 6.41016693 9.82965179 6.39872742 9.03117371 C5.89542542 6.46728232 5.05417614 5.57441206 3 4 C0.26769695 3.42224116 0.26769695 3.42224116 -2.6875 3.3125 C-3.68136719 3.24675781 -4.67523438 3.18101563 -5.69921875 3.11328125 C-6.45847656 3.07589844 -7.21773438 3.03851563 -8 3 C-8 2.67 -8 2.34 -8 2 C-5.36 1.67 -2.72 1.34 0 1 C0 0.67 0 0.34 0 0 Z " fill="#193C50" transform="translate(471,85)"/>
<path d="M0 0 C0.33 0 0.66 0 1 0 C1.01981934 1.16571533 1.03963867 2.33143066 1.06005859 3.5324707 C1.13608959 7.85446905 1.22481076 12.17612962 1.31738281 16.49780273 C1.35568294 18.36882868 1.390534 20.23992853 1.421875 22.11108398 C1.46750324 24.79958519 1.52550088 27.48757723 1.5859375 30.17578125 C1.59748871 31.01337479 1.60903992 31.85096832 1.62094116 32.71394348 C1.72046457 36.62373037 1.7847302 38.6770953 4 42 C6.88595946 42.58481121 6.88595946 42.58481121 10.125 42.6875 C11.22070312 42.75324219 12.31640625 42.81898438 13.4453125 42.88671875 C14.70988281 42.94279297 14.70988281 42.94279297 16 43 C16 43.33 16 43.66 16 44 C14.02 44 12.04 44 10 44 C10 44.66 10 45.32 10 46 C7.3125 46.3125 7.3125 46.3125 4 46 C1.19259115 43.75407292 -0.61164156 42.10532787 -1.8125 38.6875 C-1.874375 38.130625 -1.93625 37.57375 -2 37 C-1.34 37 -0.68 37 0 37 C0 24.79 0 12.58 0 0 Z " fill="#19425A" transform="translate(483,93)"/>
<path d="M0 0 C0.33 0 0.66 0 1 0 C1.33 18.15 1.66 36.3 2 55 C1.01 55.495 1.01 55.495 0 56 C-0.01981934 55.39003174 -0.03963867 54.78006348 -0.06005859 54.15161133 C-0.15567876 51.37149467 -0.26520705 48.59209154 -0.375 45.8125 C-0.4059375 44.85279297 -0.436875 43.89308594 -0.46875 42.90429688 C-0.50742188 41.97294922 -0.54609375 41.04160156 -0.5859375 40.08203125 C-0.6173584 39.22843018 -0.6487793 38.3748291 -0.68115234 37.49536133 C-1.03369507 34.73629607 -1.96975196 32.57252161 -3 30 C-3 26 -3 26 -2.02587891 24.07519531 C-0.77272805 21.54026378 -0.68426706 19.61565565 -0.5859375 16.796875 C-0.54726562 15.8171875 -0.50859375 14.8375 -0.46875 13.828125 C-0.4378125 12.81234375 -0.406875 11.7965625 -0.375 10.75 C-0.33632812 9.71875 -0.29765625 8.6875 -0.2578125 7.625 C-0.16368326 5.0835106 -0.07805021 2.54202567 0 0 Z " fill="#757575" transform="translate(227,76)"/>
<path d="M0 0 C3.81049403 0.54435629 5.63979378 1.98870241 8 5 C8.75 8.25 8.75 8.25 9 11 C8.34 11 7.68 11 7 11 C7 21.89 7 32.78 7 44 C6.67 44 6.34 44 6 44 C5.98541748 42.89487061 5.97083496 41.78974121 5.95581055 40.65112305 C5.89785734 36.55264861 5.82062481 32.45472533 5.73754883 28.35668945 C5.70428536 26.58269188 5.67625782 24.8085881 5.65356445 23.03442383 C5.62004398 20.48472824 5.56773135 17.93600708 5.51171875 15.38671875 C5.50532883 14.59287277 5.4989389 13.79902679 5.49235535 12.98112488 C5.40902223 8.75383005 5.40902223 8.75383005 3.65039062 5.0078125 C1.11100214 3.45713267 -1.24590567 3.47065023 -4.1875 3.3125 C-5.27417969 3.24675781 -6.36085938 3.18101563 -7.48046875 3.11328125 C-8.31191406 3.07589844 -9.14335937 3.03851563 -10 3 C-10 2.67 -10 2.34 -10 2 C-6.7 1.67 -3.4 1.34 0 1 C0 0.67 0 0.34 0 0 Z " fill="#183242" transform="translate(350,85)"/>
<path d="M0 0 C0.66 0 1.32 0 2 0 C2.07405295 4.80546679 2.12855497 9.6106029 2.16479492 14.41650391 C2.17989911 16.05197941 2.20038389 17.68741429 2.22631836 19.32275391 C2.26263145 21.67100024 2.27970932 24.01871205 2.29296875 26.3671875 C2.30845261 27.10057343 2.32393646 27.83395935 2.33988953 28.58956909 C2.34057617 30.65185547 2.34057617 30.65185547 2 34 C1.01 34.66 0.02 35.32 -1 36 C-0.67 24.12 -0.34 12.24 0 0 Z " fill="#000101" transform="translate(357,96)"/>
<path d="M0 0 C0.33 0.66 0.66 1.32 1 2 C-0.33697106 4.9710468 -1.29326638 6.6348336 -4.22265625 8.1484375 C-7.39482753 9.12105823 -10.00151227 9.19776896 -13.3125 9.125 C-14.38113281 9.10695312 -15.44976562 9.08890625 -16.55078125 9.0703125 C-17.35902344 9.04710937 -18.16726563 9.02390625 -19 9 C-17.29558401 6.90140311 -16.45254723 6.06698634 -13.73046875 5.6640625 C-12.89128906 5.65117187 -12.05210937 5.63828125 -11.1875 5.625 C-5.86039357 5.27401934 -3.68109131 3.77796214 0 0 Z " fill="#0E1417" transform="translate(358,130)"/>
<path d="M0 0 C2 3 2 3 3 5.125 C3.85860158 7.17044538 3.85860158 7.17044538 6 8 C7.70363822 8.22622081 9.41328701 8.40888473 11.125 8.5625 C12.03507812 8.64628906 12.94515625 8.73007813 13.8828125 8.81640625 C14.93082031 8.90728516 14.93082031 8.90728516 16 9 C16 9.33 16 9.66 16 10 C13.69 10 11.38 10 9 10 C9 10.66 9 11.32 9 12 C6.13144287 11.91563067 4.44317685 11.41307819 2.33203125 9.4453125 C-2 4.48559976 -2 4.48559976 -2 2 C-1.34 2 -0.68 2 0 2 C0 1.34 0 0.68 0 0 Z " fill="#131F25" transform="translate(382,102)"/>
<path d="M0 0 C0.33 0 0.66 0 1 0 C1.49079755 7.36196319 1.49079755 7.36196319 -0.875 10.4375 C-5.05497564 13.5110115 -7.90864967 13.08211855 -13 13 C-13 12.34 -13 11.68 -13 11 C-12.38511719 10.89042969 -11.77023437 10.78085938 -11.13671875 10.66796875 C-10.32847656 10.50941406 -9.52023437 10.35085937 -8.6875 10.1875 C-7.88699219 10.03667969 -7.08648438 9.88585937 -6.26171875 9.73046875 C-3.70727177 8.90545738 -2.6271927 8.11535051 -1 6 C-0.2730774 2.89160979 -0.2730774 2.89160979 0 0 Z " fill="#091116" transform="translate(627,130)"/>
<path d="M0 0 C3 3 3 3 3.1875 5.6875 C3.0946875 6.8321875 3.0946875 6.8321875 3 8 C4.65 8 6.3 8 8 8 C7.01 9.485 7.01 9.485 6 11 C2.875 11.1875 2.875 11.1875 0 11 C0 7.37 0 3.74 0 0 Z " fill="#0E1A21" transform="translate(399,87)"/>
<path d="M0 0 C0.98484375 0.21269531 1.9696875 0.42539063 2.984375 0.64453125 C3.73203125 0.82371094 4.4796875 1.00289063 5.25 1.1875 C5.25 1.5175 5.25 1.8475 5.25 2.1875 C4.50234375 2.23648438 3.7546875 2.28546875 2.984375 2.3359375 C1.99953125 2.41070312 1.0146875 2.48546875 0 2.5625 C-1.46179688 2.66691406 -1.46179688 2.66691406 -2.953125 2.7734375 C-5.64633189 3.17215249 -7.41963279 3.82257063 -9.75 5.1875 C-9.75 2.1875 -9.75 2.1875 -8.109375 0.44921875 C-4.98943189 -1.21922765 -3.40954037 -0.77120556 0 0 Z " fill="#132631" transform="translate(492.75,85.8125)"/>
<path d="M0 0 C1.28958647 2.3949463 2.16463335 4.55975338 2.9375 7.1875 C3.288125 8.115625 3.63875 9.04375 4 10 C4.99 10.33 5.98 10.66 7 11 C6.34 11.66 5.68 12.32 5 13 C0.17970402 9.14376321 0.17970402 9.14376321 -0.33203125 5.88671875 C-0.3145776 3.92143786 -0.16596091 1.95833873 0 0 Z " fill="#16252E" transform="translate(608,129)"/>
<path d="M0 0 C3.96 0 7.92 0 12 0 C12 0.33 12 0.66 12 1 C10.02 1 8.04 1 6 1 C6 1.66 6 2.32 6 3 C4.02 3 2.04 3 0 3 C0 2.01 0 1.02 0 0 Z " fill="#192126" transform="translate(487,136)"/>
<path d="M0 0 C0.33 0 0.66 0 1 0 C1 3.3 1 6.6 1 10 C-0.32 8.68 -1.64 7.36 -3 6 C-1.125 1.125 -1.125 1.125 0 0 Z " fill="#F4F4F4" transform="translate(226,99)"/>
<path d="M0 0 C0.33 0.66 0.66 1.32 1 2 C-0.25 4.5625 -0.25 4.5625 -2 7 C-2.99 7.33 -3.98 7.66 -5 8 C-3.375 2.25 -3.375 2.25 0 0 Z " fill="#171A1C" transform="translate(358,130)"/>
<path d="M0 0 C0.33 0.99 0.66 1.98 1 3 C-0.65 4.32 -2.3 5.64 -4 7 C-4.33 6.34 -4.66 5.68 -5 5 C-3.35 3.35 -1.7 1.7 0 0 Z " fill="#131617" transform="translate(415,131)"/>
<path d="M0 0 C1.9375 0.8125 1.9375 0.8125 4 2 C5.15941038 5.47823115 4.70820884 7.45895578 4 11 C3.67 11 3.34 11 3 11 C2.87625 9.9275 2.7525 8.855 2.625 7.75 C2.10356064 4.62136385 1.59911746 2.66519576 0 0 Z " fill="#102A39" transform="translate(623,125)"/>
<path d="M0 0 C-3.45214853 2.30143236 -4.23479324 2.13833854 -8.1875 1.625 C-9.53908203 1.45871094 -9.53908203 1.45871094 -10.91796875 1.2890625 C-11.60503906 1.19367188 -12.29210937 1.09828125 -13 1 C-13 0.67 -13 0.34 -13 0 C-11.58456585 -0.19658808 -10.16755969 -0.38187546 -8.75 -0.5625 C-7.96109375 -0.66691406 -7.1721875 -0.77132812 -6.359375 -0.87890625 C-3.99467126 -1.00027349 -2.2488963 -0.69633257 0 0 Z " fill="#122936" transform="translate(455,87)"/>
<path d="M0 0 C0.66 0.33 1.32 0.66 2 1 C1.67 1.99 1.34 2.98 1 4 C-0.65 4.33 -2.3 4.66 -4 5 C-3 2 -3 2 0 0 Z " fill="#101517" transform="translate(387,71)"/>
</svg>
